<?xml version="1.0" encoding="utf-8" standalone="no"?>
<!DOCTYPE svg PUBLIC "-//W3C//DTD SVG 1.1//EN"
  "http://www.w3.org/Graphics/SVG/1.1/DTD/svg11.dtd">
<svg xmlns:xlink="http://www.w3.org/1999/xlink" width="720pt" height="288pt" viewBox="0 0 720 288" xmlns="http://www.w3.org/2000/svg" version="1.1">
 <metadata>
  <rdf:RDF xmlns:dc="http://purl.org/dc/elements/1.1/" xmlns:cc="http://creativecommons.org/ns#" xmlns:rdf="http://www.w3.org/1999/02/22-rdf-syntax-ns#">
   <cc:Work>
    <dc:type rdf:resource="http://purl.org/dc/dcmitype/StillImage"/>
    <dc:date>2025-12-17T23:40:52.112284</dc:date>
    <dc:format>image/svg+xml</dc:format>
    <dc:creator>
     <cc:Agent>
      <dc:title>Matplotlib v3.10.7, https://matplotlib.org/</dc:title>
     </cc:Agent>
    </dc:creator>
   </cc:Work>
  </rdf:RDF>
 </metadata>
 <defs>
  <style type="text/css">*{stroke-linejoin: round; stroke-linecap: butt}</style>
 </defs>
 <g id="figure_1">
  <g id="patch_1">
   <path d="M 0 288 
L 720 288 
L 720 0 
L 0 0 
z
" style="fill: #ffffff"/>
  </g>
  <g id="axes_1">
   <g id="patch_2">
    <path d="M 47.82 244.14 
L 354.6 244.14 
L 354.6 27.6 
L 47.82 27.6 
z
" style="fill: #ffffff"/>
   </g>
   <g id="matplotlib.axis_1">
    <g id="xtick_1">
     <g id="line2d_1">
      <defs>
       <path id="m7fc383ae70" d="M 0 0 
L 0 -3.5 
" style="stroke: #000000; stroke-width: 0.8"/>
      </defs>
      <g>
       <use xlink:href="#m7fc383ae70" x="61.736654" y="244.14" style="stroke: #000000; stroke-width: 0.8"/>
      </g>
     </g>
     <g id="line2d_2">
      <defs>
       <path id="mcb87a7dadc" d="M 0 0 
L 0 3.5 
" style="stroke: #000000; stroke-width: 0.8"/>
      </defs>
      <g>
       <use xlink:href="#mcb87a7dadc" x="61.736654" y="27.6" style="stroke: #000000; stroke-width: 0.8"/>
      </g>
     </g>
     <g id="text_1">
      <!-- 0.00 -->
      <g transform="translate(50.603841 255.238437) scale(0.1 -0.1)">
       <defs>
        <path id="DejaVuSans-30" d="M 2034 4250 
Q 1547 4250 1301 3770 
Q 1056 3291 1056 2328 
Q 1056 1369 1301 889 
Q 1547 409 2034 409 
Q 2525 409 2770 889 
Q 3016 1369 3016 2328 
Q 3016 3291 2770 3770 
Q 2525 4250 2034 4250 
z
M 2034 4750 
Q 2819 4750 3233 4129 
Q 3647 3509 3647 2328 
Q 3647 1150 3233 529 
Q 2819 -91 2034 -91 
Q 1250 -91 836 529 
Q 422 1150 422 2328 
Q 422 3509 836 4129 
Q 1250 4750 2034 4750 
z
" transform="scale(0.015625)"/>
        <path id="DejaVuSans-2e" d="M 684 794 
L 1344 794 
L 1344 0 
L 684 0 
L 684 794 
z
" transform="scale(0.015625)"/>
       </defs>
       <use xlink:href="#DejaVuSans-30"/>
       <use xlink:href="#DejaVuSans-2e" transform="translate(63.623047 0)"/>
       <use xlink:href="#DejaVuSans-30" transform="translate(95.410156 0)"/>
       <use xlink:href="#DejaVuSans-30" transform="translate(159.033203 0)"/>
      </g>
     </g>
    </g>
    <g id="xtick_2">
     <g id="line2d_3">
      <g>
       <use xlink:href="#m7fc383ae70" x="117.520414" y="244.14" style="stroke: #000000; stroke-width: 0.8"/>
      </g>
     </g>
     <g id="line2d_4">
      <g>
       <use xlink:href="#mcb87a7dadc" x="117.520414" y="27.6" style="stroke: #000000; stroke-width: 0.8"/>
      </g>
     </g>
     <g id="text_2">
      <!-- 0.02 -->
      <g transform="translate(106.387601 255.238437) scale(0.1 -0.1)">
       <defs>
        <path id="DejaVuSans-32" d="M 1228 531 
L 3431 531 
L 3431 0 
L 469 0 
L 469 531 
Q 828 903 1448 1529 
Q 2069 2156 2228 2338 
Q 2531 2678 2651 2914 
Q 2772 3150 2772 3378 
Q 2772 3750 2511 3984 
Q 2250 4219 1831 4219 
Q 1534 4219 1204 4116 
Q 875 4013 500 3803 
L 500 4441 
Q 881 4594 1212 4672 
Q 1544 4750 1819 4750 
Q 2544 4750 2975 4387 
Q 3406 4025 3406 3419 
Q 3406 3131 3298 2873 
Q 3191 2616 2906 2266 
Q 2828 2175 2409 1742 
Q 1991 1309 1228 531 
z
" transform="scale(0.015625)"/>
       </defs>
       <use xlink:href="#DejaVuSans-30"/>
       <use xlink:href="#DejaVuSans-2e" transform="translate(63.623047 0)"/>
       <use xlink:href="#DejaVuSans-30" transform="translate(95.410156 0)"/>
       <use xlink:href="#DejaVuSans-32" transform="translate(159.033203 0)"/>
      </g>
     </g>
    </g>
    <g id="xtick_3">
     <g id="line2d_5">
      <g>
       <use xlink:href="#m7fc383ae70" x="173.304174" y="244.14" style="stroke: #000000; stroke-width: 0.8"/>
      </g>
     </g>
     <g id="line2d_6">
      <g>
       <use xlink:href="#mcb87a7dadc" x="173.304174" y="27.6" style="stroke: #000000; stroke-width: 0.8"/>
      </g>
     </g>
     <g id="text_3">
      <!-- 0.04 -->
      <g transform="translate(162.171361 255.238437) scale(0.1 -0.1)">
       <defs>
        <path id="DejaVuSans-34" d="M 2419 4116 
L 825 1625 
L 2419 1625 
L 2419 4116 
z
M 2253 4666 
L 3047 4666 
L 3047 1625 
L 3713 1625 
L 3713 1100 
L 3047 1100 
L 3047 0 
L 2419 0 
L 2419 1100 
L 313 1100 
L 313 1709 
L 2253 4666 
z
" transform="scale(0.015625)"/>
       </defs>
       <use xlink:href="#DejaVuSans-30"/>
       <use xlink:href="#DejaVuSans-2e" transform="translate(63.623047 0)"/>
       <use xlink:href="#DejaVuSans-30" transform="translate(95.410156 0)"/>
       <use xlink:href="#DejaVuSans-34" transform="translate(159.033203 0)"/>
      </g>
     </g>
    </g>
    <g id="xtick_4">
     <g id="line2d_7">
      <g>
       <use xlink:href="#m7fc383ae70" x="229.087934" y="244.14" style="stroke: #000000; stroke-width: 0.8"/>
      </g>
     </g>
     <g id="line2d_8">
      <g>
       <use xlink:href="#mcb87a7dadc" x="229.087934" y="27.6" style="stroke: #000000; stroke-width: 0.8"/>
      </g>
     </g>
     <g id="text_4">
      <!-- 0.06 -->
      <g transform="translate(217.955122 255.238437) scale(0.1 -0.1)">
       <defs>
        <path id="DejaVuSans-36" d="M 2113 2584 
Q 1688 2584 1439 2293 
Q 1191 2003 1191 1497 
Q 1191 994 1439 701 
Q 1688 409 2113 409 
Q 2538 409 2786 701 
Q 3034 994 3034 1497 
Q 3034 2003 2786 2293 
Q 2538 2584 2113 2584 
z
M 3366 4563 
L 3366 3988 
Q 3128 4100 2886 4159 
Q 2644 4219 2406 4219 
Q 1781 4219 1451 3797 
Q 1122 3375 1075 2522 
Q 1259 2794 1537 2939 
Q 1816 3084 2150 3084 
Q 2853 3084 3261 2657 
Q 3669 2231 3669 1497 
Q 3669 778 3244 343 
Q 2819 -91 2113 -91 
Q 1303 -91 875 529 
Q 447 1150 447 2328 
Q 447 3434 972 4092 
Q 1497 4750 2381 4750 
Q 2619 4750 2861 4703 
Q 3103 4656 3366 4563 
z
" transform="scale(0.015625)"/>
       </defs>
       <use xlink:href="#DejaVuSans-30"/>
       <use xlink:href="#DejaVuSans-2e" transform="translate(63.623047 0)"/>
       <use xlink:href="#DejaVuSans-30" transform="translate(95.410156 0)"/>
       <use xlink:href="#DejaVuSans-36" transform="translate(159.033203 0)"/>
      </g>
     </g>
    </g>
    <g id="xtick_5">
     <g id="line2d_9">
      <g>
       <use xlink:href="#m7fc383ae70" x="284.871694" y="244.14" style="stroke: #000000; stroke-width: 0.8"/>
      </g>
     </g>
     <g id="line2d_10">
      <g>
       <use xlink:href="#mcb87a7dadc" x="284.871694" y="27.6" style="stroke: #000000; stroke-width: 0.8"/>
      </g>
     </g>
     <g id="text_5">
      <!-- 0.08 -->
      <g transform="translate(273.738882 255.238437) scale(0.1 -0.1)">
       <defs>
        <path id="DejaVuSans-38" d="M 2034 2216 
Q 1584 2216 1326 1975 
Q 1069 1734 1069 1313 
Q 1069 891 1326 650 
Q 1584 409 2034 409 
Q 2484 409 2743 651 
Q 3003 894 3003 1313 
Q 3003 1734 2745 1975 
Q 2488 2216 2034 2216 
z
M 1403 2484 
Q 997 2584 770 2862 
Q 544 3141 544 3541 
Q 544 4100 942 4425 
Q 1341 4750 2034 4750 
Q 2731 4750 3128 4425 
Q 3525 4100 3525 3541 
Q 3525 3141 3298 2862 
Q 3072 2584 2669 2484 
Q 3125 2378 3379 2068 
Q 3634 1759 3634 1313 
Q 3634 634 3220 271 
Q 2806 -91 2034 -91 
Q 1263 -91 848 271 
Q 434 634 434 1313 
Q 434 1759 690 2068 
Q 947 2378 1403 2484 
z
M 1172 3481 
Q 1172 3119 1398 2916 
Q 1625 2713 2034 2713 
Q 2441 2713 2670 2916 
Q 2900 3119 2900 3481 
Q 2900 3844 2670 4047 
Q 2441 4250 2034 4250 
Q 1625 4250 1398 4047 
Q 1172 3844 1172 3481 
z
" transform="scale(0.015625)"/>
       </defs>
       <use xlink:href="#DejaVuSans-30"/>
       <use xlink:href="#DejaVuSans-2e" transform="translate(63.623047 0)"/>
       <use xlink:href="#DejaVuSans-30" transform="translate(95.410156 0)"/>
       <use xlink:href="#DejaVuSans-38" transform="translate(159.033203 0)"/>
      </g>
     </g>
    </g>
    <g id="xtick_6">
     <g id="line2d_11">
      <g>
       <use xlink:href="#m7fc383ae70" x="340.655455" y="244.14" style="stroke: #000000; stroke-width: 0.8"/>
      </g>
     </g>
     <g id="line2d_12">
      <g>
       <use xlink:href="#mcb87a7dadc" x="340.655455" y="27.6" style="stroke: #000000; stroke-width: 0.8"/>
      </g>
     </g>
     <g id="text_6">
      <!-- 0.10 -->
      <g transform="translate(329.522642 255.238437) scale(0.1 -0.1)">
       <defs>
        <path id="DejaVuSans-31" d="M 794 531 
L 1825 531 
L 1825 4091 
L 703 3866 
L 703 4441 
L 1819 4666 
L 2450 4666 
L 2450 531 
L 3481 531 
L 3481 0 
L 794 0 
L 794 531 
z
" transform="scale(0.015625)"/>
       </defs>
       <use xlink:href="#DejaVuSans-30"/>
       <use xlink:href="#DejaVuSans-2e" transform="translate(63.623047 0)"/>
       <use xlink:href="#DejaVuSans-31" transform="translate(95.410156 0)"/>
       <use xlink:href="#DejaVuSans-30" transform="translate(159.033203 0)"/>
      </g>
     </g>
    </g>
    <g id="text_7">
     <!-- $p_{measurement}$ -->
     <g transform="translate(162.22 271.9275) scale(0.14 -0.14)">
      <defs>
       <path id="DejaVuSans-Oblique-70" d="M 3175 2156 
Q 3175 2616 2975 2859 
Q 2775 3103 2400 3103 
Q 2144 3103 1911 2972 
Q 1678 2841 1497 2591 
Q 1319 2344 1212 1994 
Q 1106 1644 1106 1300 
Q 1106 863 1306 627 
Q 1506 391 1875 391 
Q 2147 391 2380 519 
Q 2613 647 2778 891 
Q 2956 1147 3065 1494 
Q 3175 1841 3175 2156 
z
M 1394 2969 
Q 1625 3272 1939 3428 
Q 2253 3584 2638 3584 
Q 3175 3584 3472 3232 
Q 3769 2881 3769 2247 
Q 3769 1728 3584 1258 
Q 3400 788 3053 416 
Q 2822 169 2531 39 
Q 2241 -91 1919 -91 
Q 1547 -91 1294 64 
Q 1041 219 916 525 
L 556 -1331 
L -19 -1331 
L 922 3500 
L 1497 3500 
L 1394 2969 
z
" transform="scale(0.015625)"/>
       <path id="DejaVuSans-Oblique-6d" d="M 5747 2113 
L 5338 0 
L 4763 0 
L 5166 2094 
Q 5191 2228 5203 2325 
Q 5216 2422 5216 2491 
Q 5216 2772 5059 2928 
Q 4903 3084 4622 3084 
Q 4203 3084 3875 2770 
Q 3547 2456 3450 1953 
L 3066 0 
L 2491 0 
L 2900 2094 
Q 2925 2209 2937 2307 
Q 2950 2406 2950 2484 
Q 2950 2769 2794 2926 
Q 2638 3084 2363 3084 
Q 1938 3084 1609 2770 
Q 1281 2456 1184 1953 
L 800 0 
L 225 0 
L 909 3500 
L 1484 3500 
L 1375 2956 
Q 1609 3263 1923 3423 
Q 2238 3584 2597 3584 
Q 2978 3584 3223 3384 
Q 3469 3184 3519 2828 
Q 3781 3197 4126 3390 
Q 4472 3584 4856 3584 
Q 5306 3584 5551 3325 
Q 5797 3066 5797 2591 
Q 5797 2488 5784 2364 
Q 5772 2241 5747 2113 
z
" transform="scale(0.015625)"/>
       <path id="DejaVuSans-Oblique-65" d="M 3078 2063 
Q 3088 2113 3092 2166 
Q 3097 2219 3097 2272 
Q 3097 2653 2873 2875 
Q 2650 3097 2266 3097 
Q 1838 3097 1509 2826 
Q 1181 2556 1013 2059 
L 3078 2063 
z
M 3578 1613 
L 903 1613 
Q 884 1494 878 1425 
Q 872 1356 872 1306 
Q 872 872 1139 634 
Q 1406 397 1894 397 
Q 2269 397 2603 481 
Q 2938 566 3225 728 
L 3116 159 
Q 2806 34 2476 -28 
Q 2147 -91 1806 -91 
Q 1078 -91 686 257 
Q 294 606 294 1247 
Q 294 1794 489 2264 
Q 684 2734 1063 3103 
Q 1306 3334 1642 3459 
Q 1978 3584 2356 3584 
Q 2950 3584 3301 3228 
Q 3653 2872 3653 2272 
Q 3653 2128 3634 1964 
Q 3616 1800 3578 1613 
z
" transform="scale(0.015625)"/>
       <path id="DejaVuSans-Oblique-61" d="M 3438 1997 
L 3047 0 
L 2472 0 
L 2578 531 
Q 2325 219 2001 64 
Q 1678 -91 1281 -91 
Q 834 -91 548 182 
Q 263 456 263 884 
Q 263 1497 752 1853 
Q 1241 2209 2100 2209 
L 2900 2209 
L 2931 2363 
Q 2938 2388 2941 2417 
Q 2944 2447 2944 2509 
Q 2944 2788 2717 2942 
Q 2491 3097 2081 3097 
Q 1800 3097 1504 3025 
Q 1209 2953 897 2809 
L 997 3341 
Q 1322 3463 1633 3523 
Q 1944 3584 2234 3584 
Q 2853 3584 3176 3315 
Q 3500 3047 3500 2534 
Q 3500 2431 3484 2292 
Q 3469 2153 3438 1997 
z
M 2816 1759 
L 2241 1759 
Q 1534 1759 1195 1570 
Q 856 1381 856 984 
Q 856 709 1029 553 
Q 1203 397 1509 397 
Q 1978 397 2328 733 
Q 2678 1069 2791 1631 
L 2816 1759 
z
" transform="scale(0.015625)"/>
       <path id="DejaVuSans-Oblique-73" d="M 3200 3397 
L 3091 2853 
Q 2863 2978 2609 3040 
Q 2356 3103 2088 3103 
Q 1634 3103 1373 2948 
Q 1113 2794 1113 2528 
Q 1113 2219 1719 2053 
Q 1766 2041 1788 2034 
L 1972 1978 
Q 2547 1819 2739 1644 
Q 2931 1469 2931 1166 
Q 2931 609 2489 259 
Q 2047 -91 1331 -91 
Q 1053 -91 747 -37 
Q 441 16 72 128 
L 184 722 
Q 500 559 806 475 
Q 1113 391 1394 391 
Q 1816 391 2080 572 
Q 2344 753 2344 1031 
Q 2344 1331 1650 1516 
L 1591 1531 
L 1394 1581 
Q 956 1697 753 1886 
Q 550 2075 550 2369 
Q 550 2928 970 3256 
Q 1391 3584 2113 3584 
Q 2397 3584 2667 3537 
Q 2938 3491 3200 3397 
z
" transform="scale(0.015625)"/>
       <path id="DejaVuSans-Oblique-75" d="M 428 1388 
L 838 3500 
L 1416 3500 
L 1006 1409 
Q 975 1256 961 1147 
Q 947 1038 947 966 
Q 947 700 1109 554 
Q 1272 409 1569 409 
Q 2031 409 2368 721 
Q 2706 1034 2809 1563 
L 3194 3500 
L 3769 3500 
L 3091 0 
L 2516 0 
L 2631 550 
Q 2388 244 2052 76 
Q 1716 -91 1338 -91 
Q 878 -91 622 161 
Q 366 413 366 863 
Q 366 956 381 1097 
Q 397 1238 428 1388 
z
" transform="scale(0.015625)"/>
       <path id="DejaVuSans-Oblique-72" d="M 2853 2969 
Q 2766 3016 2653 3041 
Q 2541 3066 2413 3066 
Q 1953 3066 1609 2717 
Q 1266 2369 1153 1784 
L 800 0 
L 225 0 
L 909 3500 
L 1484 3500 
L 1375 2956 
Q 1603 3259 1920 3421 
Q 2238 3584 2597 3584 
Q 2691 3584 2781 3573 
Q 2872 3563 2963 3538 
L 2853 2969 
z
" transform="scale(0.015625)"/>
       <path id="DejaVuSans-Oblique-6e" d="M 3566 2113 
L 3156 0 
L 2578 0 
L 2988 2091 
Q 3016 2238 3031 2350 
Q 3047 2463 3047 2528 
Q 3047 2791 2881 2937 
Q 2716 3084 2419 3084 
Q 1956 3084 1622 2776 
Q 1288 2469 1184 1941 
L 800 0 
L 225 0 
L 903 3500 
L 1478 3500 
L 1363 2950 
Q 1603 3253 1940 3418 
Q 2278 3584 2650 3584 
Q 3113 3584 3367 3334 
Q 3622 3084 3622 2631 
Q 3622 2519 3608 2391 
Q 3594 2263 3566 2113 
z
" transform="scale(0.015625)"/>
       <path id="DejaVuSans-Oblique-74" d="M 2706 3500 
L 2619 3053 
L 1472 3053 
L 1100 1153 
Q 1081 1047 1072 975 
Q 1063 903 1063 863 
Q 1063 663 1183 572 
Q 1303 481 1569 481 
L 2150 481 
L 2053 0 
L 1503 0 
Q 991 0 739 200 
Q 488 400 488 806 
Q 488 878 497 964 
Q 506 1050 525 1153 
L 897 3053 
L 409 3053 
L 500 3500 
L 978 3500 
L 1172 4494 
L 1747 4494 
L 1556 3500 
L 2706 3500 
z
" transform="scale(0.015625)"/>
      </defs>
      <use xlink:href="#DejaVuSans-Oblique-70"/>
      <use xlink:href="#DejaVuSans-Oblique-6d" transform="translate(63.476562 -16.40625) scale(0.7)"/>
      <use xlink:href="#DejaVuSans-Oblique-65" transform="translate(131.665039 -16.40625) scale(0.7)"/>
      <use xlink:href="#DejaVuSans-Oblique-61" transform="translate(174.731445 -16.40625) scale(0.7)"/>
      <use xlink:href="#DejaVuSans-Oblique-73" transform="translate(217.626953 -16.40625) scale(0.7)"/>
      <use xlink:href="#DejaVuSans-Oblique-75" transform="translate(254.09668 -16.40625) scale(0.7)"/>
      <use xlink:href="#DejaVuSans-Oblique-72" transform="translate(298.461914 -16.40625) scale(0.7)"/>
      <use xlink:href="#DejaVuSans-Oblique-65" transform="translate(327.241211 -16.40625) scale(0.7)"/>
      <use xlink:href="#DejaVuSans-Oblique-6d" transform="translate(370.307617 -16.40625) scale(0.7)"/>
      <use xlink:href="#DejaVuSans-Oblique-65" transform="translate(438.496094 -16.40625) scale(0.7)"/>
      <use xlink:href="#DejaVuSans-Oblique-6e" transform="translate(481.5625 -16.40625) scale(0.7)"/>
      <use xlink:href="#DejaVuSans-Oblique-74" transform="translate(525.927734 -16.40625) scale(0.7)"/>
     </g>
    </g>
   </g>
   <g id="matplotlib.axis_2">
    <g id="ytick_1">
     <g id="line2d_13">
      <defs>
       <path id="mdefdc5e64e" d="M 0 0 
L 3.5 0 
" style="stroke: #000000; stroke-width: 0.8"/>
      </defs>
      <g>
       <use xlink:href="#mdefdc5e64e" x="47.82" y="234.297273" style="stroke: #000000; stroke-width: 0.8"/>
      </g>
     </g>
     <g id="line2d_14">
      <defs>
       <path id="mf18266661f" d="M 0 0 
L -3.5 0 
" style="stroke: #000000; stroke-width: 0.8"/>
      </defs>
      <g>
       <use xlink:href="#mf18266661f" x="354.6" y="234.297273" style="stroke: #000000; stroke-width: 0.8"/>
      </g>
     </g>
     <g id="text_8">
      <!-- 0.0 -->
      <g transform="translate(28.416875 238.096491) scale(0.1 -0.1)">
       <use xlink:href="#DejaVuSans-30"/>
       <use xlink:href="#DejaVuSans-2e" transform="translate(63.623047 0)"/>
       <use xlink:href="#DejaVuSans-30" transform="translate(95.410156 0)"/>
      </g>
     </g>
    </g>
    <g id="ytick_2">
     <g id="line2d_15">
      <g>
       <use xlink:href="#mdefdc5e64e" x="47.82" y="194.926364" style="stroke: #000000; stroke-width: 0.8"/>
      </g>
     </g>
     <g id="line2d_16">
      <g>
       <use xlink:href="#mf18266661f" x="354.6" y="194.926364" style="stroke: #000000; stroke-width: 0.8"/>
      </g>
     </g>
     <g id="text_9">
      <!-- 0.2 -->
      <g transform="translate(28.416875 198.725582) scale(0.1 -0.1)">
       <use xlink:href="#DejaVuSans-30"/>
       <use xlink:href="#DejaVuSans-2e" transform="translate(63.623047 0)"/>
       <use xlink:href="#DejaVuSans-32" transform="translate(95.410156 0)"/>
      </g>
     </g>
    </g>
    <g id="ytick_3">
     <g id="line2d_17">
      <g>
       <use xlink:href="#mdefdc5e64e" x="47.82" y="155.555455" style="stroke: #000000; stroke-width: 0.8"/>
      </g>
     </g>
     <g id="line2d_18">
      <g>
       <use xlink:href="#mf18266661f" x="354.6" y="155.555455" style="stroke: #000000; stroke-width: 0.8"/>
      </g>
     </g>
     <g id="text_10">
      <!-- 0.4 -->
      <g transform="translate(28.416875 159.354673) scale(0.1 -0.1)">
       <use xlink:href="#DejaVuSans-30"/>
       <use xlink:href="#DejaVuSans-2e" transform="translate(63.623047 0)"/>
       <use xlink:href="#DejaVuSans-34" transform="translate(95.410156 0)"/>
      </g>
     </g>
    </g>
    <g id="ytick_4">
     <g id="line2d_19">
      <g>
       <use xlink:href="#mdefdc5e64e" x="47.82" y="116.184545" style="stroke: #000000; stroke-width: 0.8"/>
      </g>
     </g>
     <g id="line2d_20">
      <g>
       <use xlink:href="#mf18266661f" x="354.6" y="116.184545" style="stroke: #000000; stroke-width: 0.8"/>
      </g>
     </g>
     <g id="text_11">
      <!-- 0.6 -->
      <g transform="translate(28.416875 119.983764) scale(0.1 -0.1)">
       <use xlink:href="#DejaVuSans-30"/>
       <use xlink:href="#DejaVuSans-2e" transform="translate(63.623047 0)"/>
       <use xlink:href="#DejaVuSans-36" transform="translate(95.410156 0)"/>
      </g>
     </g>
    </g>
    <g id="ytick_5">
     <g id="line2d_21">
      <g>
       <use xlink:href="#mdefdc5e64e" x="47.82" y="76.813636" style="stroke: #000000; stroke-width: 0.8"/>
      </g>
     </g>
     <g id="line2d_22">
      <g>
       <use xlink:href="#mf18266661f" x="354.6" y="76.813636" style="stroke: #000000; stroke-width: 0.8"/>
      </g>
     </g>
     <g id="text_12">
      <!-- 0.8 -->
      <g transform="translate(28.416875 80.612855) scale(0.1 -0.1)">
       <use xlink:href="#DejaVuSans-30"/>
       <use xlink:href="#DejaVuSans-2e" transform="translate(63.623047 0)"/>
       <use xlink:href="#DejaVuSans-38" transform="translate(95.410156 0)"/>
      </g>
     </g>
    </g>
    <g id="ytick_6">
     <g id="line2d_23">
      <g>
       <use xlink:href="#mdefdc5e64e" x="47.82" y="37.442727" style="stroke: #000000; stroke-width: 0.8"/>
      </g>
     </g>
     <g id="line2d_24">
      <g>
       <use xlink:href="#mf18266661f" x="354.6" y="37.442727" style="stroke: #000000; stroke-width: 0.8"/>
      </g>
     </g>
     <g id="text_13">
      <!-- 1.0 -->
      <g transform="translate(28.416875 41.241946) scale(0.1 -0.1)">
       <use xlink:href="#DejaVuSans-31"/>
       <use xlink:href="#DejaVuSans-2e" transform="translate(63.623047 0)"/>
       <use xlink:href="#DejaVuSans-30" transform="translate(95.410156 0)"/>
      </g>
     </g>
    </g>
    <g id="text_14">
     <!-- Fidelity -->
     <g transform="translate(21.505312 160.861094) rotate(-90) scale(0.14 -0.14)">
      <defs>
       <path id="DejaVuSans-46" d="M 628 4666 
L 3309 4666 
L 3309 4134 
L 1259 4134 
L 1259 2759 
L 3109 2759 
L 3109 2228 
L 1259 2228 
L 1259 0 
L 628 0 
L 628 4666 
z
" transform="scale(0.015625)"/>
       <path id="DejaVuSans-69" d="M 603 3500 
L 1178 3500 
L 1178 0 
L 603 0 
L 603 3500 
z
M 603 4863 
L 1178 4863 
L 1178 4134 
L 603 4134 
L 603 4863 
z
" transform="scale(0.015625)"/>
       <path id="DejaVuSans-64" d="M 2906 2969 
L 2906 4863 
L 3481 4863 
L 3481 0 
L 2906 0 
L 2906 525 
Q 2725 213 2448 61 
Q 2172 -91 1784 -91 
Q 1150 -91 751 415 
Q 353 922 353 1747 
Q 353 2572 751 3078 
Q 1150 3584 1784 3584 
Q 2172 3584 2448 3432 
Q 2725 3281 2906 2969 
z
M 947 1747 
Q 947 1113 1208 752 
Q 1469 391 1925 391 
Q 2381 391 2643 752 
Q 2906 1113 2906 1747 
Q 2906 2381 2643 2742 
Q 2381 3103 1925 3103 
Q 1469 3103 1208 2742 
Q 947 2381 947 1747 
z
" transform="scale(0.015625)"/>
       <path id="DejaVuSans-65" d="M 3597 1894 
L 3597 1613 
L 953 1613 
Q 991 1019 1311 708 
Q 1631 397 2203 397 
Q 2534 397 2845 478 
Q 3156 559 3463 722 
L 3463 178 
Q 3153 47 2828 -22 
Q 2503 -91 2169 -91 
Q 1331 -91 842 396 
Q 353 884 353 1716 
Q 353 2575 817 3079 
Q 1281 3584 2069 3584 
Q 2775 3584 3186 3129 
Q 3597 2675 3597 1894 
z
M 3022 2063 
Q 3016 2534 2758 2815 
Q 2500 3097 2075 3097 
Q 1594 3097 1305 2825 
Q 1016 2553 972 2059 
L 3022 2063 
z
" transform="scale(0.015625)"/>
       <path id="DejaVuSans-6c" d="M 603 4863 
L 1178 4863 
L 1178 0 
L 603 0 
L 603 4863 
z
" transform="scale(0.015625)"/>
       <path id="DejaVuSans-74" d="M 1172 4494 
L 1172 3500 
L 2356 3500 
L 2356 3053 
L 1172 3053 
L 1172 1153 
Q 1172 725 1289 603 
Q 1406 481 1766 481 
L 2356 481 
L 2356 0 
L 1766 0 
Q 1100 0 847 248 
Q 594 497 594 1153 
L 594 3053 
L 172 3053 
L 172 3500 
L 594 3500 
L 594 4494 
L 1172 4494 
z
" transform="scale(0.015625)"/>
       <path id="DejaVuSans-79" d="M 2059 -325 
Q 1816 -950 1584 -1140 
Q 1353 -1331 966 -1331 
L 506 -1331 
L 506 -850 
L 844 -850 
Q 1081 -850 1212 -737 
Q 1344 -625 1503 -206 
L 1606 56 
L 191 3500 
L 800 3500 
L 1894 763 
L 2988 3500 
L 3597 3500 
L 2059 -325 
z
" transform="scale(0.015625)"/>
      </defs>
      <use xlink:href="#DejaVuSans-46"/>
      <use xlink:href="#DejaVuSans-69" transform="translate(50.269531 0)"/>
      <use xlink:href="#DejaVuSans-64" transform="translate(78.052734 0)"/>
      <use xlink:href="#DejaVuSans-65" transform="translate(141.529297 0)"/>
      <use xlink:href="#DejaVuSans-6c" transform="translate(203.052734 0)"/>
      <use xlink:href="#DejaVuSans-69" transform="translate(230.835938 0)"/>
      <use xlink:href="#DejaVuSans-74" transform="translate(258.619141 0)"/>
      <use xlink:href="#DejaVuSans-79" transform="translate(297.828125 0)"/>
     </g>
    </g>
   </g>
   <g id="line2d_25">
    <path d="M 61.764545 37.442727 
L 92.752424 52.994236 
L 123.740303 67.364618 
L 154.728182 81.538145 
L 185.716061 94.530545 
L 216.703939 110.672618 
L 247.691818 118.940509 
L 278.679697 134.295164 
L 309.667576 136.460564 
L 340.655455 154.964891 
" clip-path="url(#p9c9ca76bda)" style="fill: none; stroke: #4169e1; stroke-width: 1.5; stroke-linecap: square"/>
    <defs>
     <path id="ma5e2d9232a" d="M 0 3 
C 0.795609 3 1.55874 2.683901 2.12132 2.12132 
C 2.683901 1.55874 3 0.795609 3 0 
C 3 -0.795609 2.683901 -1.55874 2.12132 -2.12132 
C 1.55874 -2.683901 0.795609 -3 0 -3 
C -0.795609 -3 -1.55874 -2.683901 -2.12132 -2.12132 
C -2.683901 -1.55874 -3 -0.795609 -3 0 
C -3 0.795609 -2.683901 1.55874 -2.12132 2.12132 
C -1.55874 2.683901 -0.795609 3 0 3 
z
" style="stroke: #4169e1"/>
    </defs>
    <g clip-path="url(#p9c9ca76bda)">
     <use xlink:href="#ma5e2d9232a" x="61.764545" y="37.442727" style="fill: #ffffff; stroke: #4169e1"/>
     <use xlink:href="#ma5e2d9232a" x="92.752424" y="52.994236" style="fill: #ffffff; stroke: #4169e1"/>
     <use xlink:href="#ma5e2d9232a" x="123.740303" y="67.364618" style="fill: #ffffff; stroke: #4169e1"/>
     <use xlink:href="#ma5e2d9232a" x="154.728182" y="81.538145" style="fill: #ffffff; stroke: #4169e1"/>
     <use xlink:href="#ma5e2d9232a" x="185.716061" y="94.530545" style="fill: #ffffff; stroke: #4169e1"/>
     <use xlink:href="#ma5e2d9232a" x="216.703939" y="110.672618" style="fill: #ffffff; stroke: #4169e1"/>
     <use xlink:href="#ma5e2d9232a" x="247.691818" y="118.940509" style="fill: #ffffff; stroke: #4169e1"/>
     <use xlink:href="#ma5e2d9232a" x="278.679697" y="134.295164" style="fill: #ffffff; stroke: #4169e1"/>
     <use xlink:href="#ma5e2d9232a" x="309.667576" y="136.460564" style="fill: #ffffff; stroke: #4169e1"/>
     <use xlink:href="#ma5e2d9232a" x="340.655455" y="154.964891" style="fill: #ffffff; stroke: #4169e1"/>
    </g>
   </g>
   <g id="line2d_26">
    <path d="M 61.764545 37.442727 
L 92.752424 37.639582 
L 123.740303 40.001836 
L 154.728182 43.545218 
L 185.716061 46.104327 
L 216.703939 48.663436 
L 247.691818 54.175364 
L 278.679697 62.443255 
L 309.667576 73.663964 
L 340.655455 75.041945 
" clip-path="url(#p9c9ca76bda)" style="fill: none; stroke: #4169e1; stroke-width: 1.5; stroke-linecap: square"/>
    <defs>
     <path id="m1fdf646a57" d="M -3 3 
L 3 3 
L 3 -3 
L -3 -3 
z
" style="stroke: #4169e1; stroke-linejoin: miter"/>
    </defs>
    <g clip-path="url(#p9c9ca76bda)">
     <use xlink:href="#m1fdf646a57" x="61.764545" y="37.442727" style="fill: #ffffff; stroke: #4169e1; stroke-linejoin: miter"/>
     <use xlink:href="#m1fdf646a57" x="92.752424" y="37.639582" style="fill: #ffffff; stroke: #4169e1; stroke-linejoin: miter"/>
     <use xlink:href="#m1fdf646a57" x="123.740303" y="40.001836" style="fill: #ffffff; stroke: #4169e1; stroke-linejoin: miter"/>
     <use xlink:href="#m1fdf646a57" x="154.728182" y="43.545218" style="fill: #ffffff; stroke: #4169e1; stroke-linejoin: miter"/>
     <use xlink:href="#m1fdf646a57" x="185.716061" y="46.104327" style="fill: #ffffff; stroke: #4169e1; stroke-linejoin: miter"/>
     <use xlink:href="#m1fdf646a57" x="216.703939" y="48.663436" style="fill: #ffffff; stroke: #4169e1; stroke-linejoin: miter"/>
     <use xlink:href="#m1fdf646a57" x="247.691818" y="54.175364" style="fill: #ffffff; stroke: #4169e1; stroke-linejoin: miter"/>
     <use xlink:href="#m1fdf646a57" x="278.679697" y="62.443255" style="fill: #ffffff; stroke: #4169e1; stroke-linejoin: miter"/>
     <use xlink:href="#m1fdf646a57" x="309.667576" y="73.663964" style="fill: #ffffff; stroke: #4169e1; stroke-linejoin: miter"/>
     <use xlink:href="#m1fdf646a57" x="340.655455" y="75.041945" style="fill: #ffffff; stroke: #4169e1; stroke-linejoin: miter"/>
    </g>
   </g>
   <g id="line2d_27">
    <path d="M 61.764545 37.442727 
L 92.752424 37.442727 
L 123.740303 37.639582 
L 154.728182 38.033291 
L 185.716061 38.820709 
L 216.703939 39.608127 
L 247.691818 41.379818 
L 278.679697 44.9232 
L 309.667576 45.120055 
L 340.655455 50.435127 
" clip-path="url(#p9c9ca76bda)" style="fill: none; stroke: #4169e1; stroke-width: 1.5; stroke-linecap: square"/>
    <defs>
     <path id="me408ce2383" d="M 0 -3 
L -3 3 
L 3 3 
z
" style="stroke: #4169e1; stroke-linejoin: miter"/>
    </defs>
    <g clip-path="url(#p9c9ca76bda)">
     <use xlink:href="#me408ce2383" x="61.764545" y="37.442727" style="fill: #ffffff; stroke: #4169e1; stroke-linejoin: miter"/>
     <use xlink:href="#me408ce2383" x="92.752424" y="37.442727" style="fill: #ffffff; stroke: #4169e1; stroke-linejoin: miter"/>
     <use xlink:href="#me408ce2383" x="123.740303" y="37.639582" style="fill: #ffffff; stroke: #4169e1; stroke-linejoin: miter"/>
     <use xlink:href="#me408ce2383" x="154.728182" y="38.033291" style="fill: #ffffff; stroke: #4169e1; stroke-linejoin: miter"/>
     <use xlink:href="#me408ce2383" x="185.716061" y="38.820709" style="fill: #ffffff; stroke: #4169e1; stroke-linejoin: miter"/>
     <use xlink:href="#me408ce2383" x="216.703939" y="39.608127" style="fill: #ffffff; stroke: #4169e1; stroke-linejoin: miter"/>
     <use xlink:href="#me408ce2383" x="247.691818" y="41.379818" style="fill: #ffffff; stroke: #4169e1; stroke-linejoin: miter"/>
     <use xlink:href="#me408ce2383" x="278.679697" y="44.9232" style="fill: #ffffff; stroke: #4169e1; stroke-linejoin: miter"/>
     <use xlink:href="#me408ce2383" x="309.667576" y="45.120055" style="fill: #ffffff; stroke: #4169e1; stroke-linejoin: miter"/>
     <use xlink:href="#me408ce2383" x="340.655455" y="50.435127" style="fill: #ffffff; stroke: #4169e1; stroke-linejoin: miter"/>
    </g>
   </g>
   <g id="line2d_28">
    <path d="M 61.764545 37.442727 
L 92.752424 37.442727 
L 123.740303 37.442727 
L 154.728182 38.230145 
L 185.716061 38.033291 
L 216.703939 37.442727 
L 247.691818 38.033291 
L 278.679697 39.608127 
L 309.667576 40.986109 
L 340.655455 40.395545 
" clip-path="url(#p9c9ca76bda)" style="fill: none; stroke: #4169e1; stroke-width: 1.5; stroke-linecap: square"/>
    <defs>
     <path id="m3e916c4822" d="M -0 4.242641 
L 4.242641 0 
L 0 -4.242641 
L -4.242641 -0 
z
" style="stroke: #4169e1; stroke-linejoin: miter"/>
    </defs>
    <g clip-path="url(#p9c9ca76bda)">
     <use xlink:href="#m3e916c4822" x="61.764545" y="37.442727" style="fill: #ffffff; stroke: #4169e1; stroke-linejoin: miter"/>
     <use xlink:href="#m3e916c4822" x="92.752424" y="37.442727" style="fill: #ffffff; stroke: #4169e1; stroke-linejoin: miter"/>
     <use xlink:href="#m3e916c4822" x="123.740303" y="37.442727" style="fill: #ffffff; stroke: #4169e1; stroke-linejoin: miter"/>
     <use xlink:href="#m3e916c4822" x="154.728182" y="38.230145" style="fill: #ffffff; stroke: #4169e1; stroke-linejoin: miter"/>
     <use xlink:href="#m3e916c4822" x="185.716061" y="38.033291" style="fill: #ffffff; stroke: #4169e1; stroke-linejoin: miter"/>
     <use xlink:href="#m3e916c4822" x="216.703939" y="37.442727" style="fill: #ffffff; stroke: #4169e1; stroke-linejoin: miter"/>
     <use xlink:href="#m3e916c4822" x="247.691818" y="38.033291" style="fill: #ffffff; stroke: #4169e1; stroke-linejoin: miter"/>
     <use xlink:href="#m3e916c4822" x="278.679697" y="39.608127" style="fill: #ffffff; stroke: #4169e1; stroke-linejoin: miter"/>
     <use xlink:href="#m3e916c4822" x="309.667576" y="40.986109" style="fill: #ffffff; stroke: #4169e1; stroke-linejoin: miter"/>
     <use xlink:href="#m3e916c4822" x="340.655455" y="40.395545" style="fill: #ffffff; stroke: #4169e1; stroke-linejoin: miter"/>
    </g>
   </g>
   <g id="line2d_29">
    <path d="M 61.764545 37.639582 
L 92.752424 154.177473 
L 123.740303 202.013127 
L 154.728182 222.092291 
L 185.716061 228.9822 
L 216.703939 231.738164 
L 247.691818 232.919291 
L 278.679697 233.903564 
L 309.667576 234.100418 
L 340.655455 234.297273 
" clip-path="url(#p9c9ca76bda)" style="fill: none; stroke: #228b22; stroke-width: 1.5; stroke-linecap: square"/>
    <defs>
     <path id="m9e710ff367" d="M 0 3 
C 0.795609 3 1.55874 2.683901 2.12132 2.12132 
C 2.683901 1.55874 3 0.795609 3 0 
C 3 -0.795609 2.683901 -1.55874 2.12132 -2.12132 
C 1.55874 -2.683901 0.795609 -3 0 -3 
C -0.795609 -3 -1.55874 -2.683901 -2.12132 -2.12132 
C -2.683901 -1.55874 -3 -0.795609 -3 0 
C -3 0.795609 -2.683901 1.55874 -2.12132 2.12132 
C -1.55874 2.683901 -0.795609 3 0 3 
z
" style="stroke: #228b22"/>
    </defs>
    <g clip-path="url(#p9c9ca76bda)">
     <use xlink:href="#m9e710ff367" x="61.764545" y="37.639582" style="fill: #ffffff; stroke: #228b22"/>
     <use xlink:href="#m9e710ff367" x="92.752424" y="154.177473" style="fill: #ffffff; stroke: #228b22"/>
     <use xlink:href="#m9e710ff367" x="123.740303" y="202.013127" style="fill: #ffffff; stroke: #228b22"/>
     <use xlink:href="#m9e710ff367" x="154.728182" y="222.092291" style="fill: #ffffff; stroke: #228b22"/>
     <use xlink:href="#m9e710ff367" x="185.716061" y="228.9822" style="fill: #ffffff; stroke: #228b22"/>
     <use xlink:href="#m9e710ff367" x="216.703939" y="231.738164" style="fill: #ffffff; stroke: #228b22"/>
     <use xlink:href="#m9e710ff367" x="247.691818" y="232.919291" style="fill: #ffffff; stroke: #228b22"/>
     <use xlink:href="#m9e710ff367" x="278.679697" y="233.903564" style="fill: #ffffff; stroke: #228b22"/>
     <use xlink:href="#m9e710ff367" x="309.667576" y="234.100418" style="fill: #ffffff; stroke: #228b22"/>
     <use xlink:href="#m9e710ff367" x="340.655455" y="234.297273" style="fill: #ffffff; stroke: #228b22"/>
    </g>
   </g>
   <g id="line2d_30">
    <path d="M 61.764545 37.442727 
L 92.752424 43.938927 
L 123.740303 58.703018 
L 154.728182 83.703545 
L 185.716061 107.916655 
L 216.703939 140.594509 
L 247.691818 163.823345 
L 278.679697 186.264764 
L 309.667576 198.469745 
L 340.655455 214.414964 
" clip-path="url(#p9c9ca76bda)" style="fill: none; stroke: #228b22; stroke-width: 1.5; stroke-linecap: square"/>
    <defs>
     <path id="m73412ef507" d="M -3 3 
L 3 3 
L 3 -3 
L -3 -3 
z
" style="stroke: #228b22; stroke-linejoin: miter"/>
    </defs>
    <g clip-path="url(#p9c9ca76bda)">
     <use xlink:href="#m73412ef507" x="61.764545" y="37.442727" style="fill: #ffffff; stroke: #228b22; stroke-linejoin: miter"/>
     <use xlink:href="#m73412ef507" x="92.752424" y="43.938927" style="fill: #ffffff; stroke: #228b22; stroke-linejoin: miter"/>
     <use xlink:href="#m73412ef507" x="123.740303" y="58.703018" style="fill: #ffffff; stroke: #228b22; stroke-linejoin: miter"/>
     <use xlink:href="#m73412ef507" x="154.728182" y="83.703545" style="fill: #ffffff; stroke: #228b22; stroke-linejoin: miter"/>
     <use xlink:href="#m73412ef507" x="185.716061" y="107.916655" style="fill: #ffffff; stroke: #228b22; stroke-linejoin: miter"/>
     <use xlink:href="#m73412ef507" x="216.703939" y="140.594509" style="fill: #ffffff; stroke: #228b22; stroke-linejoin: miter"/>
     <use xlink:href="#m73412ef507" x="247.691818" y="163.823345" style="fill: #ffffff; stroke: #228b22; stroke-linejoin: miter"/>
     <use xlink:href="#m73412ef507" x="278.679697" y="186.264764" style="fill: #ffffff; stroke: #228b22; stroke-linejoin: miter"/>
     <use xlink:href="#m73412ef507" x="309.667576" y="198.469745" style="fill: #ffffff; stroke: #228b22; stroke-linejoin: miter"/>
     <use xlink:href="#m73412ef507" x="340.655455" y="214.414964" style="fill: #ffffff; stroke: #228b22; stroke-linejoin: miter"/>
    </g>
   </g>
   <g id="line2d_31">
    <path d="M 61.764545 37.442727 
L 92.752424 37.639582 
L 123.740303 38.427 
L 154.728182 43.348364 
L 185.716061 50.238273 
L 216.703939 57.9156 
L 247.691818 75.435655 
L 278.679697 93.152564 
L 309.667576 114.412855 
L 340.655455 134.688873 
" clip-path="url(#p9c9ca76bda)" style="fill: none; stroke: #228b22; stroke-width: 1.5; stroke-linecap: square"/>
    <defs>
     <path id="m3421f7ce8a" d="M 0 -3 
L -3 3 
L 3 3 
z
" style="stroke: #228b22; stroke-linejoin: miter"/>
    </defs>
    <g clip-path="url(#p9c9ca76bda)">
     <use xlink:href="#m3421f7ce8a" x="61.764545" y="37.442727" style="fill: #ffffff; stroke: #228b22; stroke-linejoin: miter"/>
     <use xlink:href="#m3421f7ce8a" x="92.752424" y="37.639582" style="fill: #ffffff; stroke: #228b22; stroke-linejoin: miter"/>
     <use xlink:href="#m3421f7ce8a" x="123.740303" y="38.427" style="fill: #ffffff; stroke: #228b22; stroke-linejoin: miter"/>
     <use xlink:href="#m3421f7ce8a" x="154.728182" y="43.348364" style="fill: #ffffff; stroke: #228b22; stroke-linejoin: miter"/>
     <use xlink:href="#m3421f7ce8a" x="185.716061" y="50.238273" style="fill: #ffffff; stroke: #228b22; stroke-linejoin: miter"/>
     <use xlink:href="#m3421f7ce8a" x="216.703939" y="57.9156" style="fill: #ffffff; stroke: #228b22; stroke-linejoin: miter"/>
     <use xlink:href="#m3421f7ce8a" x="247.691818" y="75.435655" style="fill: #ffffff; stroke: #228b22; stroke-linejoin: miter"/>
     <use xlink:href="#m3421f7ce8a" x="278.679697" y="93.152564" style="fill: #ffffff; stroke: #228b22; stroke-linejoin: miter"/>
     <use xlink:href="#m3421f7ce8a" x="309.667576" y="114.412855" style="fill: #ffffff; stroke: #228b22; stroke-linejoin: miter"/>
     <use xlink:href="#m3421f7ce8a" x="340.655455" y="134.688873" style="fill: #ffffff; stroke: #228b22; stroke-linejoin: miter"/>
    </g>
   </g>
   <g id="line2d_32">
    <path d="M 61.764545 37.442727 
L 92.752424 37.639582 
L 123.740303 37.442727 
L 154.728182 37.442727 
L 185.716061 39.804982 
L 216.703939 43.938927 
L 247.691818 46.498036 
L 278.679697 52.797382 
L 309.667576 64.214945 
L 340.655455 77.601055 
" clip-path="url(#p9c9ca76bda)" style="fill: none; stroke: #228b22; stroke-width: 1.5; stroke-linecap: square"/>
    <defs>
     <path id="m4cd0eac7b3" d="M -0 4.242641 
L 4.242641 0 
L 0 -4.242641 
L -4.242641 -0 
z
" style="stroke: #228b22; stroke-linejoin: miter"/>
    </defs>
    <g clip-path="url(#p9c9ca76bda)">
     <use xlink:href="#m4cd0eac7b3" x="61.764545" y="37.442727" style="fill: #ffffff; stroke: #228b22; stroke-linejoin: miter"/>
     <use xlink:href="#m4cd0eac7b3" x="92.752424" y="37.639582" style="fill: #ffffff; stroke: #228b22; stroke-linejoin: miter"/>
     <use xlink:href="#m4cd0eac7b3" x="123.740303" y="37.442727" style="fill: #ffffff; stroke: #228b22; stroke-linejoin: miter"/>
     <use xlink:href="#m4cd0eac7b3" x="154.728182" y="37.442727" style="fill: #ffffff; stroke: #228b22; stroke-linejoin: miter"/>
     <use xlink:href="#m4cd0eac7b3" x="185.716061" y="39.804982" style="fill: #ffffff; stroke: #228b22; stroke-linejoin: miter"/>
     <use xlink:href="#m4cd0eac7b3" x="216.703939" y="43.938927" style="fill: #ffffff; stroke: #228b22; stroke-linejoin: miter"/>
     <use xlink:href="#m4cd0eac7b3" x="247.691818" y="46.498036" style="fill: #ffffff; stroke: #228b22; stroke-linejoin: miter"/>
     <use xlink:href="#m4cd0eac7b3" x="278.679697" y="52.797382" style="fill: #ffffff; stroke: #228b22; stroke-linejoin: miter"/>
     <use xlink:href="#m4cd0eac7b3" x="309.667576" y="64.214945" style="fill: #ffffff; stroke: #228b22; stroke-linejoin: miter"/>
     <use xlink:href="#m4cd0eac7b3" x="340.655455" y="77.601055" style="fill: #ffffff; stroke: #228b22; stroke-linejoin: miter"/>
    </g>
   </g>
   <g id="patch_3">
    <path d="M 47.82 244.14 
L 47.82 27.6 
" style="fill: none; stroke: #000000; stroke-width: 0.8; stroke-linejoin: miter; stroke-linecap: square"/>
   </g>
   <g id="patch_4">
    <path d="M 354.6 244.14 
L 354.6 27.6 
" style="fill: none; stroke: #000000; stroke-width: 0.8; stroke-linejoin: miter; stroke-linecap: square"/>
   </g>
   <g id="patch_5">
    <path d="M 47.82 244.14 
L 354.6 244.14 
" style="fill: none; stroke: #000000; stroke-width: 0.8; stroke-linejoin: miter; stroke-linecap: square"/>
   </g>
   <g id="patch_6">
    <path d="M 47.82 27.6 
L 354.6 27.6 
" style="fill: none; stroke: #000000; stroke-width: 0.8; stroke-linejoin: miter; stroke-linecap: square"/>
   </g>
   <g id="text_15">
    <!-- Perfect gates (a) -->
    <g transform="translate(238.301563 21.6) scale(0.14 -0.14)">
     <defs>
      <path id="DejaVuSans-50" d="M 1259 4147 
L 1259 2394 
L 2053 2394 
Q 2494 2394 2734 2622 
Q 2975 2850 2975 3272 
Q 2975 3691 2734 3919 
Q 2494 4147 2053 4147 
L 1259 4147 
z
M 628 4666 
L 2053 4666 
Q 2838 4666 3239 4311 
Q 3641 3956 3641 3272 
Q 3641 2581 3239 2228 
Q 2838 1875 2053 1875 
L 1259 1875 
L 1259 0 
L 628 0 
L 628 4666 
z
" transform="scale(0.015625)"/>
      <path id="DejaVuSans-72" d="M 2631 2963 
Q 2534 3019 2420 3045 
Q 2306 3072 2169 3072 
Q 1681 3072 1420 2755 
Q 1159 2438 1159 1844 
L 1159 0 
L 581 0 
L 581 3500 
L 1159 3500 
L 1159 2956 
Q 1341 3275 1631 3429 
Q 1922 3584 2338 3584 
Q 2397 3584 2469 3576 
Q 2541 3569 2628 3553 
L 2631 2963 
z
" transform="scale(0.015625)"/>
      <path id="DejaVuSans-66" d="M 2375 4863 
L 2375 4384 
L 1825 4384 
Q 1516 4384 1395 4259 
Q 1275 4134 1275 3809 
L 1275 3500 
L 2222 3500 
L 2222 3053 
L 1275 3053 
L 1275 0 
L 697 0 
L 697 3053 
L 147 3053 
L 147 3500 
L 697 3500 
L 697 3744 
Q 697 4328 969 4595 
Q 1241 4863 1831 4863 
L 2375 4863 
z
" transform="scale(0.015625)"/>
      <path id="DejaVuSans-63" d="M 3122 3366 
L 3122 2828 
Q 2878 2963 2633 3030 
Q 2388 3097 2138 3097 
Q 1578 3097 1268 2742 
Q 959 2388 959 1747 
Q 959 1106 1268 751 
Q 1578 397 2138 397 
Q 2388 397 2633 464 
Q 2878 531 3122 666 
L 3122 134 
Q 2881 22 2623 -34 
Q 2366 -91 2075 -91 
Q 1284 -91 818 406 
Q 353 903 353 1747 
Q 353 2603 823 3093 
Q 1294 3584 2113 3584 
Q 2378 3584 2631 3529 
Q 2884 3475 3122 3366 
z
" transform="scale(0.015625)"/>
      <path id="DejaVuSans-20" transform="scale(0.015625)"/>
      <path id="DejaVuSans-67" d="M 2906 1791 
Q 2906 2416 2648 2759 
Q 2391 3103 1925 3103 
Q 1463 3103 1205 2759 
Q 947 2416 947 1791 
Q 947 1169 1205 825 
Q 1463 481 1925 481 
Q 2391 481 2648 825 
Q 2906 1169 2906 1791 
z
M 3481 434 
Q 3481 -459 3084 -895 
Q 2688 -1331 1869 -1331 
Q 1566 -1331 1297 -1286 
Q 1028 -1241 775 -1147 
L 775 -588 
Q 1028 -725 1275 -790 
Q 1522 -856 1778 -856 
Q 2344 -856 2625 -561 
Q 2906 -266 2906 331 
L 2906 616 
Q 2728 306 2450 153 
Q 2172 0 1784 0 
Q 1141 0 747 490 
Q 353 981 353 1791 
Q 353 2603 747 3093 
Q 1141 3584 1784 3584 
Q 2172 3584 2450 3431 
Q 2728 3278 2906 2969 
L 2906 3500 
L 3481 3500 
L 3481 434 
z
" transform="scale(0.015625)"/>
      <path id="DejaVuSans-61" d="M 2194 1759 
Q 1497 1759 1228 1600 
Q 959 1441 959 1056 
Q 959 750 1161 570 
Q 1363 391 1709 391 
Q 2188 391 2477 730 
Q 2766 1069 2766 1631 
L 2766 1759 
L 2194 1759 
z
M 3341 1997 
L 3341 0 
L 2766 0 
L 2766 531 
Q 2569 213 2275 61 
Q 1981 -91 1556 -91 
Q 1019 -91 701 211 
Q 384 513 384 1019 
Q 384 1609 779 1909 
Q 1175 2209 1959 2209 
L 2766 2209 
L 2766 2266 
Q 2766 2663 2505 2880 
Q 2244 3097 1772 3097 
Q 1472 3097 1187 3025 
Q 903 2953 641 2809 
L 641 3341 
Q 956 3463 1253 3523 
Q 1550 3584 1831 3584 
Q 2591 3584 2966 3190 
Q 3341 2797 3341 1997 
z
" transform="scale(0.015625)"/>
      <path id="DejaVuSans-73" d="M 2834 3397 
L 2834 2853 
Q 2591 2978 2328 3040 
Q 2066 3103 1784 3103 
Q 1356 3103 1142 2972 
Q 928 2841 928 2578 
Q 928 2378 1081 2264 
Q 1234 2150 1697 2047 
L 1894 2003 
Q 2506 1872 2764 1633 
Q 3022 1394 3022 966 
Q 3022 478 2636 193 
Q 2250 -91 1575 -91 
Q 1294 -91 989 -36 
Q 684 19 347 128 
L 347 722 
Q 666 556 975 473 
Q 1284 391 1588 391 
Q 1994 391 2212 530 
Q 2431 669 2431 922 
Q 2431 1156 2273 1281 
Q 2116 1406 1581 1522 
L 1381 1569 
Q 847 1681 609 1914 
Q 372 2147 372 2553 
Q 372 3047 722 3315 
Q 1072 3584 1716 3584 
Q 2034 3584 2315 3537 
Q 2597 3491 2834 3397 
z
" transform="scale(0.015625)"/>
      <path id="DejaVuSans-28" d="M 1984 4856 
Q 1566 4138 1362 3434 
Q 1159 2731 1159 2009 
Q 1159 1288 1364 580 
Q 1569 -128 1984 -844 
L 1484 -844 
Q 1016 -109 783 600 
Q 550 1309 550 2009 
Q 550 2706 781 3412 
Q 1013 4119 1484 4856 
L 1984 4856 
z
" transform="scale(0.015625)"/>
      <path id="DejaVuSans-29" d="M 513 4856 
L 1013 4856 
Q 1481 4119 1714 3412 
Q 1947 2706 1947 2009 
Q 1947 1309 1714 600 
Q 1481 -109 1013 -844 
L 513 -844 
Q 928 -128 1133 580 
Q 1338 1288 1338 2009 
Q 1338 2731 1133 3434 
Q 928 4138 513 4856 
z
" transform="scale(0.015625)"/>
     </defs>
     <use xlink:href="#DejaVuSans-50"/>
     <use xlink:href="#DejaVuSans-65" transform="translate(56.677734 0)"/>
     <use xlink:href="#DejaVuSans-72" transform="translate(118.201172 0)"/>
     <use xlink:href="#DejaVuSans-66" transform="translate(159.314453 0)"/>
     <use xlink:href="#DejaVuSans-65" transform="translate(194.519531 0)"/>
     <use xlink:href="#DejaVuSans-63" transform="translate(256.042969 0)"/>
     <use xlink:href="#DejaVuSans-74" transform="translate(311.023438 0)"/>
     <use xlink:href="#DejaVuSans-20" transform="translate(350.232422 0)"/>
     <use xlink:href="#DejaVuSans-67" transform="translate(382.019531 0)"/>
     <use xlink:href="#DejaVuSans-61" transform="translate(445.496094 0)"/>
     <use xlink:href="#DejaVuSans-74" transform="translate(506.775391 0)"/>
     <use xlink:href="#DejaVuSans-65" transform="translate(545.984375 0)"/>
     <use xlink:href="#DejaVuSans-73" transform="translate(607.507812 0)"/>
     <use xlink:href="#DejaVuSans-20" transform="translate(659.607422 0)"/>
     <use xlink:href="#DejaVuSans-28" transform="translate(691.394531 0)"/>
     <use xlink:href="#DejaVuSans-61" transform="translate(730.408203 0)"/>
     <use xlink:href="#DejaVuSans-29" transform="translate(791.6875 0)"/>
    </g>
   </g>
   <g id="legend_1">
    <g id="patch_7">
     <path d="M 54.82 147.209063 
L 196.318437 147.209063 
Q 198.318437 147.209063 198.318437 145.209063 
L 198.318437 126.530938 
Q 198.318437 124.530938 196.318437 124.530938 
L 54.82 124.530938 
Q 52.82 124.530938 52.82 126.530938 
L 52.82 145.209063 
Q 52.82 147.209063 54.82 147.209063 
z
" style="fill: #ffffff; opacity: 0.8; stroke: #cccccc; stroke-linejoin: miter"/>
    </g>
    <g id="text_16">
     <!-- $Number of measurements -->
     <g transform="translate(56.82 136.129375) scale(0.1 -0.1)">
      <defs>
       <path id="DejaVuSans-24" d="M 2163 -941 
L 1850 -941 
L 1847 0 
Q 1519 6 1191 76 
Q 863 147 531 288 
L 531 850 
Q 850 650 1176 548 
Q 1503 447 1850 444 
L 1850 1869 
Q 1159 1981 845 2250 
Q 531 2519 531 2988 
Q 531 3497 872 3790 
Q 1213 4084 1850 4128 
L 1850 4863 
L 2163 4863 
L 2163 4138 
Q 2453 4125 2725 4076 
Q 2997 4028 3256 3944 
L 3256 3397 
Q 2997 3528 2723 3600 
Q 2450 3672 2163 3684 
L 2163 2350 
Q 2872 2241 3206 1959 
Q 3541 1678 3541 1191 
Q 3541 663 3186 358 
Q 2831 53 2163 6 
L 2163 -941 
z
M 1850 2406 
L 1850 3688 
Q 1488 3647 1297 3481 
Q 1106 3316 1106 3041 
Q 1106 2772 1282 2622 
Q 1459 2472 1850 2406 
z
M 2163 1806 
L 2163 453 
Q 2559 506 2761 678 
Q 2963 850 2963 1131 
Q 2963 1406 2770 1568 
Q 2578 1731 2163 1806 
z
" transform="scale(0.015625)"/>
       <path id="DejaVuSans-4e" d="M 628 4666 
L 1478 4666 
L 3547 763 
L 3547 4666 
L 4159 4666 
L 4159 0 
L 3309 0 
L 1241 3903 
L 1241 0 
L 628 0 
L 628 4666 
z
" transform="scale(0.015625)"/>
       <path id="DejaVuSans-75" d="M 544 1381 
L 544 3500 
L 1119 3500 
L 1119 1403 
Q 1119 906 1312 657 
Q 1506 409 1894 409 
Q 2359 409 2629 706 
Q 2900 1003 2900 1516 
L 2900 3500 
L 3475 3500 
L 3475 0 
L 2900 0 
L 2900 538 
Q 2691 219 2414 64 
Q 2138 -91 1772 -91 
Q 1169 -91 856 284 
Q 544 659 544 1381 
z
M 1991 3584 
L 1991 3584 
z
" transform="scale(0.015625)"/>
       <path id="DejaVuSans-6d" d="M 3328 2828 
Q 3544 3216 3844 3400 
Q 4144 3584 4550 3584 
Q 5097 3584 5394 3201 
Q 5691 2819 5691 2113 
L 5691 0 
L 5113 0 
L 5113 2094 
Q 5113 2597 4934 2840 
Q 4756 3084 4391 3084 
Q 3944 3084 3684 2787 
Q 3425 2491 3425 1978 
L 3425 0 
L 2847 0 
L 2847 2094 
Q 2847 2600 2669 2842 
Q 2491 3084 2119 3084 
Q 1678 3084 1418 2786 
Q 1159 2488 1159 1978 
L 1159 0 
L 581 0 
L 581 3500 
L 1159 3500 
L 1159 2956 
Q 1356 3278 1631 3431 
Q 1906 3584 2284 3584 
Q 2666 3584 2933 3390 
Q 3200 3197 3328 2828 
z
" transform="scale(0.015625)"/>
       <path id="DejaVuSans-62" d="M 3116 1747 
Q 3116 2381 2855 2742 
Q 2594 3103 2138 3103 
Q 1681 3103 1420 2742 
Q 1159 2381 1159 1747 
Q 1159 1113 1420 752 
Q 1681 391 2138 391 
Q 2594 391 2855 752 
Q 3116 1113 3116 1747 
z
M 1159 2969 
Q 1341 3281 1617 3432 
Q 1894 3584 2278 3584 
Q 2916 3584 3314 3078 
Q 3713 2572 3713 1747 
Q 3713 922 3314 415 
Q 2916 -91 2278 -91 
Q 1894 -91 1617 61 
Q 1341 213 1159 525 
L 1159 0 
L 581 0 
L 581 4863 
L 1159 4863 
L 1159 2969 
z
" transform="scale(0.015625)"/>
       <path id="DejaVuSans-6f" d="M 1959 3097 
Q 1497 3097 1228 2736 
Q 959 2375 959 1747 
Q 959 1119 1226 758 
Q 1494 397 1959 397 
Q 2419 397 2687 759 
Q 2956 1122 2956 1747 
Q 2956 2369 2687 2733 
Q 2419 3097 1959 3097 
z
M 1959 3584 
Q 2709 3584 3137 3096 
Q 3566 2609 3566 1747 
Q 3566 888 3137 398 
Q 2709 -91 1959 -91 
Q 1206 -91 779 398 
Q 353 888 353 1747 
Q 353 2609 779 3096 
Q 1206 3584 1959 3584 
z
" transform="scale(0.015625)"/>
       <path id="DejaVuSans-6e" d="M 3513 2113 
L 3513 0 
L 2938 0 
L 2938 2094 
Q 2938 2591 2744 2837 
Q 2550 3084 2163 3084 
Q 1697 3084 1428 2787 
Q 1159 2491 1159 1978 
L 1159 0 
L 581 0 
L 581 3500 
L 1159 3500 
L 1159 2956 
Q 1366 3272 1645 3428 
Q 1925 3584 2291 3584 
Q 2894 3584 3203 3211 
Q 3513 2838 3513 2113 
z
" transform="scale(0.015625)"/>
      </defs>
      <use xlink:href="#DejaVuSans-24"/>
      <use xlink:href="#DejaVuSans-4e" transform="translate(63.623047 0)"/>
      <use xlink:href="#DejaVuSans-75" transform="translate(138.427734 0)"/>
      <use xlink:href="#DejaVuSans-6d" transform="translate(201.806641 0)"/>
      <use xlink:href="#DejaVuSans-62" transform="translate(299.21875 0)"/>
      <use xlink:href="#DejaVuSans-65" transform="translate(362.695312 0)"/>
      <use xlink:href="#DejaVuSans-72" transform="translate(424.21875 0)"/>
      <use xlink:href="#DejaVuSans-20" transform="translate(465.332031 0)"/>
      <use xlink:href="#DejaVuSans-6f" transform="translate(497.119141 0)"/>
      <use xlink:href="#DejaVuSans-66" transform="translate(558.300781 0)"/>
      <use xlink:href="#DejaVuSans-20" transform="translate(593.505859 0)"/>
      <use xlink:href="#DejaVuSans-6d" transform="translate(625.292969 0)"/>
      <use xlink:href="#DejaVuSans-65" transform="translate(722.705078 0)"/>
      <use xlink:href="#DejaVuSans-61" transform="translate(784.228516 0)"/>
      <use xlink:href="#DejaVuSans-73" transform="translate(845.507812 0)"/>
      <use xlink:href="#DejaVuSans-75" transform="translate(897.607422 0)"/>
      <use xlink:href="#DejaVuSans-72" transform="translate(960.986328 0)"/>
      <use xlink:href="#DejaVuSans-65" transform="translate(999.849609 0)"/>
      <use xlink:href="#DejaVuSans-6d" transform="translate(1061.373047 0)"/>
      <use xlink:href="#DejaVuSans-65" transform="translate(1158.785156 0)"/>
      <use xlink:href="#DejaVuSans-6e" transform="translate(1220.308594 0)"/>
      <use xlink:href="#DejaVuSans-74" transform="translate(1283.6875 0)"/>
      <use xlink:href="#DejaVuSans-73" transform="translate(1322.896484 0)"/>
     </g>
    </g>
   </g>
  </g>
  <g id="axes_2">
   <g id="patch_8">
    <path d="M 402.42 244.14 
L 709.2 244.14 
L 709.2 27.6 
L 402.42 27.6 
z
" style="fill: #ffffff"/>
   </g>
   <g id="matplotlib.axis_3">
    <g id="xtick_7">
     <g id="line2d_33">
      <g>
       <use xlink:href="#m7fc383ae70" x="416.336654" y="244.14" style="stroke: #000000; stroke-width: 0.8"/>
      </g>
     </g>
     <g id="line2d_34">
      <g>
       <use xlink:href="#mcb87a7dadc" x="416.336654" y="27.6" style="stroke: #000000; stroke-width: 0.8"/>
      </g>
     </g>
     <g id="text_17">
      <!-- 0.00 -->
      <g transform="translate(405.203841 255.238437) scale(0.1 -0.1)">
       <use xlink:href="#DejaVuSans-30"/>
       <use xlink:href="#DejaVuSans-2e" transform="translate(63.623047 0)"/>
       <use xlink:href="#DejaVuSans-30" transform="translate(95.410156 0)"/>
       <use xlink:href="#DejaVuSans-30" transform="translate(159.033203 0)"/>
      </g>
     </g>
    </g>
    <g id="xtick_8">
     <g id="line2d_35">
      <g>
       <use xlink:href="#m7fc383ae70" x="472.120414" y="244.14" style="stroke: #000000; stroke-width: 0.8"/>
      </g>
     </g>
     <g id="line2d_36">
      <g>
       <use xlink:href="#mcb87a7dadc" x="472.120414" y="27.6" style="stroke: #000000; stroke-width: 0.8"/>
      </g>
     </g>
     <g id="text_18">
      <!-- 0.02 -->
      <g transform="translate(460.987601 255.238437) scale(0.1 -0.1)">
       <use xlink:href="#DejaVuSans-30"/>
       <use xlink:href="#DejaVuSans-2e" transform="translate(63.623047 0)"/>
       <use xlink:href="#DejaVuSans-30" transform="translate(95.410156 0)"/>
       <use xlink:href="#DejaVuSans-32" transform="translate(159.033203 0)"/>
      </g>
     </g>
    </g>
    <g id="xtick_9">
     <g id="line2d_37">
      <g>
       <use xlink:href="#m7fc383ae70" x="527.904174" y="244.14" style="stroke: #000000; stroke-width: 0.8"/>
      </g>
     </g>
     <g id="line2d_38">
      <g>
       <use xlink:href="#mcb87a7dadc" x="527.904174" y="27.6" style="stroke: #000000; stroke-width: 0.8"/>
      </g>
     </g>
     <g id="text_19">
      <!-- 0.04 -->
      <g transform="translate(516.771361 255.238437) scale(0.1 -0.1)">
       <use xlink:href="#DejaVuSans-30"/>
       <use xlink:href="#DejaVuSans-2e" transform="translate(63.623047 0)"/>
       <use xlink:href="#DejaVuSans-30" transform="translate(95.410156 0)"/>
       <use xlink:href="#DejaVuSans-34" transform="translate(159.033203 0)"/>
      </g>
     </g>
    </g>
    <g id="xtick_10">
     <g id="line2d_39">
      <g>
       <use xlink:href="#m7fc383ae70" x="583.687934" y="244.14" style="stroke: #000000; stroke-width: 0.8"/>
      </g>
     </g>
     <g id="line2d_40">
      <g>
       <use xlink:href="#mcb87a7dadc" x="583.687934" y="27.6" style="stroke: #000000; stroke-width: 0.8"/>
      </g>
     </g>
     <g id="text_20">
      <!-- 0.06 -->
      <g transform="translate(572.555122 255.238437) scale(0.1 -0.1)">
       <use xlink:href="#DejaVuSans-30"/>
       <use xlink:href="#DejaVuSans-2e" transform="translate(63.623047 0)"/>
       <use xlink:href="#DejaVuSans-30" transform="translate(95.410156 0)"/>
       <use xlink:href="#DejaVuSans-36" transform="translate(159.033203 0)"/>
      </g>
     </g>
    </g>
    <g id="xtick_11">
     <g id="line2d_41">
      <g>
       <use xlink:href="#m7fc383ae70" x="639.471694" y="244.14" style="stroke: #000000; stroke-width: 0.8"/>
      </g>
     </g>
     <g id="line2d_42">
      <g>
       <use xlink:href="#mcb87a7dadc" x="639.471694" y="27.6" style="stroke: #000000; stroke-width: 0.8"/>
      </g>
     </g>
     <g id="text_21">
      <!-- 0.08 -->
      <g transform="translate(628.338882 255.238437) scale(0.1 -0.1)">
       <use xlink:href="#DejaVuSans-30"/>
       <use xlink:href="#DejaVuSans-2e" transform="translate(63.623047 0)"/>
       <use xlink:href="#DejaVuSans-30" transform="translate(95.410156 0)"/>
       <use xlink:href="#DejaVuSans-38" transform="translate(159.033203 0)"/>
      </g>
     </g>
    </g>
    <g id="xtick_12">
     <g id="line2d_43">
      <g>
       <use xlink:href="#m7fc383ae70" x="695.255455" y="244.14" style="stroke: #000000; stroke-width: 0.8"/>
      </g>
     </g>
     <g id="line2d_44">
      <g>
       <use xlink:href="#mcb87a7dadc" x="695.255455" y="27.6" style="stroke: #000000; stroke-width: 0.8"/>
      </g>
     </g>
     <g id="text_22">
      <!-- 0.10 -->
      <g transform="translate(684.122642 255.238437) scale(0.1 -0.1)">
       <use xlink:href="#DejaVuSans-30"/>
       <use xlink:href="#DejaVuSans-2e" transform="translate(63.623047 0)"/>
       <use xlink:href="#DejaVuSans-31" transform="translate(95.410156 0)"/>
       <use xlink:href="#DejaVuSans-30" transform="translate(159.033203 0)"/>
      </g>
     </g>
    </g>
    <g id="text_23">
     <!-- $p_{gates}$ -->
     <g transform="translate(537.54 270.5275) scale(0.14 -0.14)">
      <defs>
       <path id="DejaVuSans-Oblique-67" d="M 3816 3500 
L 3219 434 
Q 3047 -456 2561 -893 
Q 2075 -1331 1253 -1331 
Q 950 -1331 690 -1286 
Q 431 -1241 206 -1147 
L 313 -588 
Q 525 -725 762 -790 
Q 1000 -856 1269 -856 
Q 1816 -856 2167 -557 
Q 2519 -259 2631 300 
L 2681 563 
Q 2441 288 2122 144 
Q 1803 0 1434 0 
Q 903 0 598 351 
Q 294 703 294 1319 
Q 294 1803 478 2267 
Q 663 2731 997 3091 
Q 1219 3328 1514 3456 
Q 1809 3584 2131 3584 
Q 2484 3584 2746 3420 
Q 3009 3256 3138 2956 
L 3238 3500 
L 3816 3500 
z
M 2950 2216 
Q 2950 2641 2750 2872 
Q 2550 3103 2181 3103 
Q 1953 3103 1747 3012 
Q 1541 2922 1394 2759 
Q 1156 2491 1023 2127 
Q 891 1763 891 1375 
Q 891 944 1092 712 
Q 1294 481 1672 481 
Q 2219 481 2584 976 
Q 2950 1472 2950 2216 
z
" transform="scale(0.015625)"/>
      </defs>
      <use xlink:href="#DejaVuSans-Oblique-70"/>
      <use xlink:href="#DejaVuSans-Oblique-67" transform="translate(63.476562 -16.40625) scale(0.7)"/>
      <use xlink:href="#DejaVuSans-Oblique-61" transform="translate(107.910156 -16.40625) scale(0.7)"/>
      <use xlink:href="#DejaVuSans-Oblique-74" transform="translate(150.805664 -16.40625) scale(0.7)"/>
      <use xlink:href="#DejaVuSans-Oblique-65" transform="translate(178.251953 -16.40625) scale(0.7)"/>
      <use xlink:href="#DejaVuSans-Oblique-73" transform="translate(221.318359 -16.40625) scale(0.7)"/>
     </g>
    </g>
   </g>
   <g id="matplotlib.axis_4">
    <g id="ytick_7">
     <g id="line2d_45">
      <g>
       <use xlink:href="#mdefdc5e64e" x="402.42" y="234.297273" style="stroke: #000000; stroke-width: 0.8"/>
      </g>
     </g>
     <g id="line2d_46">
      <g>
       <use xlink:href="#mf18266661f" x="709.2" y="234.297273" style="stroke: #000000; stroke-width: 0.8"/>
      </g>
     </g>
     <g id="text_24">
      <!-- 0.0 -->
      <g transform="translate(383.016875 238.096491) scale(0.1 -0.1)">
       <use xlink:href="#DejaVuSans-30"/>
       <use xlink:href="#DejaVuSans-2e" transform="translate(63.623047 0)"/>
       <use xlink:href="#DejaVuSans-30" transform="translate(95.410156 0)"/>
      </g>
     </g>
    </g>
    <g id="ytick_8">
     <g id="line2d_47">
      <g>
       <use xlink:href="#mdefdc5e64e" x="402.42" y="194.847464" style="stroke: #000000; stroke-width: 0.8"/>
      </g>
     </g>
     <g id="line2d_48">
      <g>
       <use xlink:href="#mf18266661f" x="709.2" y="194.847464" style="stroke: #000000; stroke-width: 0.8"/>
      </g>
     </g>
     <g id="text_25">
      <!-- 0.2 -->
      <g transform="translate(383.016875 198.646683) scale(0.1 -0.1)">
       <use xlink:href="#DejaVuSans-30"/>
       <use xlink:href="#DejaVuSans-2e" transform="translate(63.623047 0)"/>
       <use xlink:href="#DejaVuSans-32" transform="translate(95.410156 0)"/>
      </g>
     </g>
    </g>
    <g id="ytick_9">
     <g id="line2d_49">
      <g>
       <use xlink:href="#mdefdc5e64e" x="402.42" y="155.397655" style="stroke: #000000; stroke-width: 0.8"/>
      </g>
     </g>
     <g id="line2d_50">
      <g>
       <use xlink:href="#mf18266661f" x="709.2" y="155.397655" style="stroke: #000000; stroke-width: 0.8"/>
      </g>
     </g>
     <g id="text_26">
      <!-- 0.4 -->
      <g transform="translate(383.016875 159.196874) scale(0.1 -0.1)">
       <use xlink:href="#DejaVuSans-30"/>
       <use xlink:href="#DejaVuSans-2e" transform="translate(63.623047 0)"/>
       <use xlink:href="#DejaVuSans-34" transform="translate(95.410156 0)"/>
      </g>
     </g>
    </g>
    <g id="ytick_10">
     <g id="line2d_51">
      <g>
       <use xlink:href="#mdefdc5e64e" x="402.42" y="115.947847" style="stroke: #000000; stroke-width: 0.8"/>
      </g>
     </g>
     <g id="line2d_52">
      <g>
       <use xlink:href="#mf18266661f" x="709.2" y="115.947847" style="stroke: #000000; stroke-width: 0.8"/>
      </g>
     </g>
     <g id="text_27">
      <!-- 0.6 -->
      <g transform="translate(383.016875 119.747065) scale(0.1 -0.1)">
       <use xlink:href="#DejaVuSans-30"/>
       <use xlink:href="#DejaVuSans-2e" transform="translate(63.623047 0)"/>
       <use xlink:href="#DejaVuSans-36" transform="translate(95.410156 0)"/>
      </g>
     </g>
    </g>
    <g id="ytick_11">
     <g id="line2d_53">
      <g>
       <use xlink:href="#mdefdc5e64e" x="402.42" y="76.498038" style="stroke: #000000; stroke-width: 0.8"/>
      </g>
     </g>
     <g id="line2d_54">
      <g>
       <use xlink:href="#mf18266661f" x="709.2" y="76.498038" style="stroke: #000000; stroke-width: 0.8"/>
      </g>
     </g>
     <g id="text_28">
      <!-- 0.8 -->
      <g transform="translate(383.016875 80.297257) scale(0.1 -0.1)">
       <use xlink:href="#DejaVuSans-30"/>
       <use xlink:href="#DejaVuSans-2e" transform="translate(63.623047 0)"/>
       <use xlink:href="#DejaVuSans-38" transform="translate(95.410156 0)"/>
      </g>
     </g>
    </g>
    <g id="ytick_12">
     <g id="line2d_55">
      <g>
       <use xlink:href="#mdefdc5e64e" x="402.42" y="37.048229" style="stroke: #000000; stroke-width: 0.8"/>
      </g>
     </g>
     <g id="line2d_56">
      <g>
       <use xlink:href="#mf18266661f" x="709.2" y="37.048229" style="stroke: #000000; stroke-width: 0.8"/>
      </g>
     </g>
     <g id="text_29">
      <!-- 1.0 -->
      <g transform="translate(383.016875 40.847448) scale(0.1 -0.1)">
       <use xlink:href="#DejaVuSans-31"/>
       <use xlink:href="#DejaVuSans-2e" transform="translate(63.623047 0)"/>
       <use xlink:href="#DejaVuSans-30" transform="translate(95.410156 0)"/>
      </g>
     </g>
    </g>
    <g id="text_30">
     <!-- Fidelity -->
     <g transform="translate(376.105312 160.861094) rotate(-90) scale(0.14 -0.14)">
      <use xlink:href="#DejaVuSans-46"/>
      <use xlink:href="#DejaVuSans-69" transform="translate(50.269531 0)"/>
      <use xlink:href="#DejaVuSans-64" transform="translate(78.052734 0)"/>
      <use xlink:href="#DejaVuSans-65" transform="translate(141.529297 0)"/>
      <use xlink:href="#DejaVuSans-6c" transform="translate(203.052734 0)"/>
      <use xlink:href="#DejaVuSans-69" transform="translate(230.835938 0)"/>
      <use xlink:href="#DejaVuSans-74" transform="translate(258.619141 0)"/>
      <use xlink:href="#DejaVuSans-79" transform="translate(297.828125 0)"/>
     </g>
    </g>
   </g>
   <g id="line2d_57">
    <path d="M 416.364545 105.493647 
L 447.352424 146.915946 
L 478.340303 172.95282 
L 509.328182 195.833709 
L 540.316061 209.838391 
L 571.303939 217.136606 
L 602.291818 220.095342 
L 633.279697 226.801809 
L 664.267576 226.210062 
L 695.255455 230.352292 
" clip-path="url(#p8b5441bbb8)" style="fill: none; stroke: #b22222; stroke-width: 1.5; stroke-linecap: square"/>
    <defs>
     <path id="m16ef89fa0e" d="M 0 3 
C 0.795609 3 1.55874 2.683901 2.12132 2.12132 
C 2.683901 1.55874 3 0.795609 3 0 
C 3 -0.795609 2.683901 -1.55874 2.12132 -2.12132 
C 1.55874 -2.683901 0.795609 -3 0 -3 
C -0.795609 -3 -1.55874 -2.683901 -2.12132 -2.12132 
C -2.683901 -1.55874 -3 -0.795609 -3 0 
C -3 0.795609 -2.683901 1.55874 -2.12132 2.12132 
C -1.55874 2.683901 -0.795609 3 0 3 
z
" style="stroke: #b22222"/>
    </defs>
    <g clip-path="url(#p8b5441bbb8)">
     <use xlink:href="#m16ef89fa0e" x="416.364545" y="105.493647" style="fill: #ffffff; stroke: #b22222"/>
     <use xlink:href="#m16ef89fa0e" x="447.352424" y="146.915946" style="fill: #ffffff; stroke: #b22222"/>
     <use xlink:href="#m16ef89fa0e" x="478.340303" y="172.95282" style="fill: #ffffff; stroke: #b22222"/>
     <use xlink:href="#m16ef89fa0e" x="509.328182" y="195.833709" style="fill: #ffffff; stroke: #b22222"/>
     <use xlink:href="#m16ef89fa0e" x="540.316061" y="209.838391" style="fill: #ffffff; stroke: #b22222"/>
     <use xlink:href="#m16ef89fa0e" x="571.303939" y="217.136606" style="fill: #ffffff; stroke: #b22222"/>
     <use xlink:href="#m16ef89fa0e" x="602.291818" y="220.095342" style="fill: #ffffff; stroke: #b22222"/>
     <use xlink:href="#m16ef89fa0e" x="633.279697" y="226.801809" style="fill: #ffffff; stroke: #b22222"/>
     <use xlink:href="#m16ef89fa0e" x="664.267576" y="226.210062" style="fill: #ffffff; stroke: #b22222"/>
     <use xlink:href="#m16ef89fa0e" x="695.255455" y="230.352292" style="fill: #ffffff; stroke: #b22222"/>
    </g>
   </g>
   <g id="line2d_58">
    <path d="M 416.364545 47.10793 
L 447.352424 153.030667 
L 478.340303 197.608951 
L 509.328182 220.292591 
L 540.316061 226.60456 
L 571.303939 230.944039 
L 602.291818 230.944039 
L 633.279697 231.930284 
L 664.267576 232.522031 
L 695.255455 233.902775 
" clip-path="url(#p8b5441bbb8)" style="fill: none; stroke: #b22222; stroke-width: 1.5; stroke-linecap: square"/>
    <defs>
     <path id="me9142eb537" d="M -3 3 
L 3 3 
L 3 -3 
L -3 -3 
z
" style="stroke: #b22222; stroke-linejoin: miter"/>
    </defs>
    <g clip-path="url(#p8b5441bbb8)">
     <use xlink:href="#me9142eb537" x="416.364545" y="47.10793" style="fill: #ffffff; stroke: #b22222; stroke-linejoin: miter"/>
     <use xlink:href="#me9142eb537" x="447.352424" y="153.030667" style="fill: #ffffff; stroke: #b22222; stroke-linejoin: miter"/>
     <use xlink:href="#me9142eb537" x="478.340303" y="197.608951" style="fill: #ffffff; stroke: #b22222; stroke-linejoin: miter"/>
     <use xlink:href="#me9142eb537" x="509.328182" y="220.292591" style="fill: #ffffff; stroke: #b22222; stroke-linejoin: miter"/>
     <use xlink:href="#me9142eb537" x="540.316061" y="226.60456" style="fill: #ffffff; stroke: #b22222; stroke-linejoin: miter"/>
     <use xlink:href="#me9142eb537" x="571.303939" y="230.944039" style="fill: #ffffff; stroke: #b22222; stroke-linejoin: miter"/>
     <use xlink:href="#me9142eb537" x="602.291818" y="230.944039" style="fill: #ffffff; stroke: #b22222; stroke-linejoin: miter"/>
     <use xlink:href="#me9142eb537" x="633.279697" y="231.930284" style="fill: #ffffff; stroke: #b22222; stroke-linejoin: miter"/>
     <use xlink:href="#me9142eb537" x="664.267576" y="232.522031" style="fill: #ffffff; stroke: #b22222; stroke-linejoin: miter"/>
     <use xlink:href="#me9142eb537" x="695.255455" y="233.902775" style="fill: #ffffff; stroke: #b22222; stroke-linejoin: miter"/>
    </g>
   </g>
   <g id="line2d_59">
    <path d="M 416.364545 40.401463 
L 447.352424 176.108805 
L 478.340303 217.333855 
L 509.328182 225.815564 
L 540.316061 230.944039 
L 571.303939 231.930284 
L 602.291818 233.311028 
L 633.279697 232.71928 
L 664.267576 233.902775 
L 695.255455 233.902775 
" clip-path="url(#p8b5441bbb8)" style="fill: none; stroke: #b22222; stroke-width: 1.5; stroke-linecap: square"/>
    <defs>
     <path id="m6fa000ac49" d="M 0 -3 
L -3 3 
L 3 3 
z
" style="stroke: #b22222; stroke-linejoin: miter"/>
    </defs>
    <g clip-path="url(#p8b5441bbb8)">
     <use xlink:href="#m6fa000ac49" x="416.364545" y="40.401463" style="fill: #ffffff; stroke: #b22222; stroke-linejoin: miter"/>
     <use xlink:href="#m6fa000ac49" x="447.352424" y="176.108805" style="fill: #ffffff; stroke: #b22222; stroke-linejoin: miter"/>
     <use xlink:href="#m6fa000ac49" x="478.340303" y="217.333855" style="fill: #ffffff; stroke: #b22222; stroke-linejoin: miter"/>
     <use xlink:href="#m6fa000ac49" x="509.328182" y="225.815564" style="fill: #ffffff; stroke: #b22222; stroke-linejoin: miter"/>
     <use xlink:href="#m6fa000ac49" x="540.316061" y="230.944039" style="fill: #ffffff; stroke: #b22222; stroke-linejoin: miter"/>
     <use xlink:href="#m6fa000ac49" x="571.303939" y="231.930284" style="fill: #ffffff; stroke: #b22222; stroke-linejoin: miter"/>
     <use xlink:href="#m6fa000ac49" x="602.291818" y="233.311028" style="fill: #ffffff; stroke: #b22222; stroke-linejoin: miter"/>
     <use xlink:href="#m6fa000ac49" x="633.279697" y="232.71928" style="fill: #ffffff; stroke: #b22222; stroke-linejoin: miter"/>
     <use xlink:href="#m6fa000ac49" x="664.267576" y="233.902775" style="fill: #ffffff; stroke: #b22222; stroke-linejoin: miter"/>
     <use xlink:href="#m6fa000ac49" x="695.255455" y="233.902775" style="fill: #ffffff; stroke: #b22222; stroke-linejoin: miter"/>
    </g>
   </g>
   <g id="line2d_60">
    <path d="M 416.364545 37.442727 
L 447.352424 192.677725 
L 478.340303 224.63207 
L 509.328182 230.549541 
L 540.316061 232.916529 
L 571.303939 233.508277 
L 602.291818 233.113778 
L 633.279697 234.100024 
L 664.267576 234.297273 
L 695.255455 233.311028 
" clip-path="url(#p8b5441bbb8)" style="fill: none; stroke: #b22222; stroke-width: 1.5; stroke-linecap: square"/>
    <defs>
     <path id="m144c4a3308" d="M -0 4.242641 
L 4.242641 0 
L 0 -4.242641 
L -4.242641 -0 
z
" style="stroke: #b22222; stroke-linejoin: miter"/>
    </defs>
    <g clip-path="url(#p8b5441bbb8)">
     <use xlink:href="#m144c4a3308" x="416.364545" y="37.442727" style="fill: #ffffff; stroke: #b22222; stroke-linejoin: miter"/>
     <use xlink:href="#m144c4a3308" x="447.352424" y="192.677725" style="fill: #ffffff; stroke: #b22222; stroke-linejoin: miter"/>
     <use xlink:href="#m144c4a3308" x="478.340303" y="224.63207" style="fill: #ffffff; stroke: #b22222; stroke-linejoin: miter"/>
     <use xlink:href="#m144c4a3308" x="509.328182" y="230.549541" style="fill: #ffffff; stroke: #b22222; stroke-linejoin: miter"/>
     <use xlink:href="#m144c4a3308" x="540.316061" y="232.916529" style="fill: #ffffff; stroke: #b22222; stroke-linejoin: miter"/>
     <use xlink:href="#m144c4a3308" x="571.303939" y="233.508277" style="fill: #ffffff; stroke: #b22222; stroke-linejoin: miter"/>
     <use xlink:href="#m144c4a3308" x="602.291818" y="233.113778" style="fill: #ffffff; stroke: #b22222; stroke-linejoin: miter"/>
     <use xlink:href="#m144c4a3308" x="633.279697" y="234.100024" style="fill: #ffffff; stroke: #b22222; stroke-linejoin: miter"/>
     <use xlink:href="#m144c4a3308" x="664.267576" y="234.297273" style="fill: #ffffff; stroke: #b22222; stroke-linejoin: miter"/>
     <use xlink:href="#m144c4a3308" x="695.255455" y="233.311028" style="fill: #ffffff; stroke: #b22222; stroke-linejoin: miter"/>
    </g>
   </g>
   <g id="line2d_61">
    <path d="M 416.364545 231.930284 
L 447.352424 234.297273 
L 478.340303 234.297273 
L 509.328182 234.297273 
L 540.316061 234.297273 
L 571.303939 234.297273 
L 602.291818 234.297273 
L 633.279697 234.297273 
L 664.267576 234.297273 
L 695.255455 234.297273 
" clip-path="url(#p8b5441bbb8)" style="fill: none; stroke: #6495ed; stroke-width: 1.5; stroke-linecap: square"/>
    <defs>
     <path id="m11bde8fa9d" d="M 0 3 
C 0.795609 3 1.55874 2.683901 2.12132 2.12132 
C 2.683901 1.55874 3 0.795609 3 0 
C 3 -0.795609 2.683901 -1.55874 2.12132 -2.12132 
C 1.55874 -2.683901 0.795609 -3 0 -3 
C -0.795609 -3 -1.55874 -2.683901 -2.12132 -2.12132 
C -2.683901 -1.55874 -3 -0.795609 -3 0 
C -3 0.795609 -2.683901 1.55874 -2.12132 2.12132 
C -1.55874 2.683901 -0.795609 3 0 3 
z
" style="stroke: #6495ed"/>
    </defs>
    <g clip-path="url(#p8b5441bbb8)">
     <use xlink:href="#m11bde8fa9d" x="416.364545" y="231.930284" style="fill: #ffffff; stroke: #6495ed"/>
     <use xlink:href="#m11bde8fa9d" x="447.352424" y="234.297273" style="fill: #ffffff; stroke: #6495ed"/>
     <use xlink:href="#m11bde8fa9d" x="478.340303" y="234.297273" style="fill: #ffffff; stroke: #6495ed"/>
     <use xlink:href="#m11bde8fa9d" x="509.328182" y="234.297273" style="fill: #ffffff; stroke: #6495ed"/>
     <use xlink:href="#m11bde8fa9d" x="540.316061" y="234.297273" style="fill: #ffffff; stroke: #6495ed"/>
     <use xlink:href="#m11bde8fa9d" x="571.303939" y="234.297273" style="fill: #ffffff; stroke: #6495ed"/>
     <use xlink:href="#m11bde8fa9d" x="602.291818" y="234.297273" style="fill: #ffffff; stroke: #6495ed"/>
     <use xlink:href="#m11bde8fa9d" x="633.279697" y="234.297273" style="fill: #ffffff; stroke: #6495ed"/>
     <use xlink:href="#m11bde8fa9d" x="664.267576" y="234.297273" style="fill: #ffffff; stroke: #6495ed"/>
     <use xlink:href="#m11bde8fa9d" x="695.255455" y="234.297273" style="fill: #ffffff; stroke: #6495ed"/>
    </g>
   </g>
   <g id="line2d_62">
    <path d="M 416.364545 128.966283 
L 447.352424 234.297273 
L 478.340303 234.297273 
L 509.328182 234.297273 
L 540.316061 234.297273 
L 571.303939 234.297273 
L 602.291818 234.297273 
L 633.279697 234.297273 
L 664.267576 234.297273 
L 695.255455 234.297273 
" clip-path="url(#p8b5441bbb8)" style="fill: none; stroke: #6495ed; stroke-width: 1.5; stroke-linecap: square"/>
    <defs>
     <path id="ma468275241" d="M -3 3 
L 3 3 
L 3 -3 
L -3 -3 
z
" style="stroke: #6495ed; stroke-linejoin: miter"/>
    </defs>
    <g clip-path="url(#p8b5441bbb8)">
     <use xlink:href="#ma468275241" x="416.364545" y="128.966283" style="fill: #ffffff; stroke: #6495ed; stroke-linejoin: miter"/>
     <use xlink:href="#ma468275241" x="447.352424" y="234.297273" style="fill: #ffffff; stroke: #6495ed; stroke-linejoin: miter"/>
     <use xlink:href="#ma468275241" x="478.340303" y="234.297273" style="fill: #ffffff; stroke: #6495ed; stroke-linejoin: miter"/>
     <use xlink:href="#ma468275241" x="509.328182" y="234.297273" style="fill: #ffffff; stroke: #6495ed; stroke-linejoin: miter"/>
     <use xlink:href="#ma468275241" x="540.316061" y="234.297273" style="fill: #ffffff; stroke: #6495ed; stroke-linejoin: miter"/>
     <use xlink:href="#ma468275241" x="571.303939" y="234.297273" style="fill: #ffffff; stroke: #6495ed; stroke-linejoin: miter"/>
     <use xlink:href="#ma468275241" x="602.291818" y="234.297273" style="fill: #ffffff; stroke: #6495ed; stroke-linejoin: miter"/>
     <use xlink:href="#ma468275241" x="633.279697" y="234.297273" style="fill: #ffffff; stroke: #6495ed; stroke-linejoin: miter"/>
     <use xlink:href="#ma468275241" x="664.267576" y="234.297273" style="fill: #ffffff; stroke: #6495ed; stroke-linejoin: miter"/>
     <use xlink:href="#ma468275241" x="695.255455" y="234.297273" style="fill: #ffffff; stroke: #6495ed; stroke-linejoin: miter"/>
    </g>
   </g>
   <g id="line2d_63">
    <path d="M 416.364545 57.56213 
L 447.352424 234.297273 
L 478.340303 234.297273 
L 509.328182 234.297273 
L 540.316061 234.297273 
L 571.303939 234.297273 
L 602.291818 234.297273 
L 633.279697 234.297273 
L 664.267576 234.297273 
L 695.255455 234.297273 
" clip-path="url(#p8b5441bbb8)" style="fill: none; stroke: #6495ed; stroke-width: 1.5; stroke-linecap: square"/>
    <defs>
     <path id="m2feec1083b" d="M 0 -3 
L -3 3 
L 3 3 
z
" style="stroke: #6495ed; stroke-linejoin: miter"/>
    </defs>
    <g clip-path="url(#p8b5441bbb8)">
     <use xlink:href="#m2feec1083b" x="416.364545" y="57.56213" style="fill: #ffffff; stroke: #6495ed; stroke-linejoin: miter"/>
     <use xlink:href="#m2feec1083b" x="447.352424" y="234.297273" style="fill: #ffffff; stroke: #6495ed; stroke-linejoin: miter"/>
     <use xlink:href="#m2feec1083b" x="478.340303" y="234.297273" style="fill: #ffffff; stroke: #6495ed; stroke-linejoin: miter"/>
     <use xlink:href="#m2feec1083b" x="509.328182" y="234.297273" style="fill: #ffffff; stroke: #6495ed; stroke-linejoin: miter"/>
     <use xlink:href="#m2feec1083b" x="540.316061" y="234.297273" style="fill: #ffffff; stroke: #6495ed; stroke-linejoin: miter"/>
     <use xlink:href="#m2feec1083b" x="571.303939" y="234.297273" style="fill: #ffffff; stroke: #6495ed; stroke-linejoin: miter"/>
     <use xlink:href="#m2feec1083b" x="602.291818" y="234.297273" style="fill: #ffffff; stroke: #6495ed; stroke-linejoin: miter"/>
     <use xlink:href="#m2feec1083b" x="633.279697" y="234.297273" style="fill: #ffffff; stroke: #6495ed; stroke-linejoin: miter"/>
     <use xlink:href="#m2feec1083b" x="664.267576" y="234.297273" style="fill: #ffffff; stroke: #6495ed; stroke-linejoin: miter"/>
     <use xlink:href="#m2feec1083b" x="695.255455" y="234.297273" style="fill: #ffffff; stroke: #6495ed; stroke-linejoin: miter"/>
    </g>
   </g>
   <g id="line2d_64">
    <path d="M 416.364545 44.938191 
L 447.352424 234.297273 
L 478.340303 234.297273 
L 509.328182 234.297273 
L 540.316061 234.297273 
L 571.303939 234.297273 
L 602.291818 234.297273 
L 633.279697 234.297273 
L 664.267576 234.297273 
L 695.255455 234.297273 
" clip-path="url(#p8b5441bbb8)" style="fill: none; stroke: #6495ed; stroke-width: 1.5; stroke-linecap: square"/>
    <defs>
     <path id="m774642f829" d="M -0 4.242641 
L 4.242641 0 
L 0 -4.242641 
L -4.242641 -0 
z
" style="stroke: #6495ed; stroke-linejoin: miter"/>
    </defs>
    <g clip-path="url(#p8b5441bbb8)">
     <use xlink:href="#m774642f829" x="416.364545" y="44.938191" style="fill: #ffffff; stroke: #6495ed; stroke-linejoin: miter"/>
     <use xlink:href="#m774642f829" x="447.352424" y="234.297273" style="fill: #ffffff; stroke: #6495ed; stroke-linejoin: miter"/>
     <use xlink:href="#m774642f829" x="478.340303" y="234.297273" style="fill: #ffffff; stroke: #6495ed; stroke-linejoin: miter"/>
     <use xlink:href="#m774642f829" x="509.328182" y="234.297273" style="fill: #ffffff; stroke: #6495ed; stroke-linejoin: miter"/>
     <use xlink:href="#m774642f829" x="540.316061" y="234.297273" style="fill: #ffffff; stroke: #6495ed; stroke-linejoin: miter"/>
     <use xlink:href="#m774642f829" x="571.303939" y="234.297273" style="fill: #ffffff; stroke: #6495ed; stroke-linejoin: miter"/>
     <use xlink:href="#m774642f829" x="602.291818" y="234.297273" style="fill: #ffffff; stroke: #6495ed; stroke-linejoin: miter"/>
     <use xlink:href="#m774642f829" x="633.279697" y="234.297273" style="fill: #ffffff; stroke: #6495ed; stroke-linejoin: miter"/>
     <use xlink:href="#m774642f829" x="664.267576" y="234.297273" style="fill: #ffffff; stroke: #6495ed; stroke-linejoin: miter"/>
     <use xlink:href="#m774642f829" x="695.255455" y="234.297273" style="fill: #ffffff; stroke: #6495ed; stroke-linejoin: miter"/>
    </g>
   </g>
   <g id="patch_9">
    <path d="M 402.42 244.14 
L 402.42 27.6 
" style="fill: none; stroke: #000000; stroke-width: 0.8; stroke-linejoin: miter; stroke-linecap: square"/>
   </g>
   <g id="patch_10">
    <path d="M 709.2 244.14 
L 709.2 27.6 
" style="fill: none; stroke: #000000; stroke-width: 0.8; stroke-linejoin: miter; stroke-linecap: square"/>
   </g>
   <g id="patch_11">
    <path d="M 402.42 244.14 
L 709.2 244.14 
" style="fill: none; stroke: #000000; stroke-width: 0.8; stroke-linejoin: miter; stroke-linecap: square"/>
   </g>
   <g id="patch_12">
    <path d="M 402.42 27.6 
L 709.2 27.6 
" style="fill: none; stroke: #000000; stroke-width: 0.8; stroke-linejoin: miter; stroke-linecap: square"/>
   </g>
   <g id="text_31">
    <!-- Imperfect gates (b) -->
    <g transform="translate(573.8725 21.6) scale(0.14 -0.14)">
     <defs>
      <path id="DejaVuSans-49" d="M 628 4666 
L 1259 4666 
L 1259 0 
L 628 0 
L 628 4666 
z
" transform="scale(0.015625)"/>
      <path id="DejaVuSans-70" d="M 1159 525 
L 1159 -1331 
L 581 -1331 
L 581 3500 
L 1159 3500 
L 1159 2969 
Q 1341 3281 1617 3432 
Q 1894 3584 2278 3584 
Q 2916 3584 3314 3078 
Q 3713 2572 3713 1747 
Q 3713 922 3314 415 
Q 2916 -91 2278 -91 
Q 1894 -91 1617 61 
Q 1341 213 1159 525 
z
M 3116 1747 
Q 3116 2381 2855 2742 
Q 2594 3103 2138 3103 
Q 1681 3103 1420 2742 
Q 1159 2381 1159 1747 
Q 1159 1113 1420 752 
Q 1681 391 2138 391 
Q 2594 391 2855 752 
Q 3116 1113 3116 1747 
z
" transform="scale(0.015625)"/>
     </defs>
     <use xlink:href="#DejaVuSans-49"/>
     <use xlink:href="#DejaVuSans-6d" transform="translate(29.492188 0)"/>
     <use xlink:href="#DejaVuSans-70" transform="translate(126.904297 0)"/>
     <use xlink:href="#DejaVuSans-65" transform="translate(190.380859 0)"/>
     <use xlink:href="#DejaVuSans-72" transform="translate(251.904297 0)"/>
     <use xlink:href="#DejaVuSans-66" transform="translate(293.017578 0)"/>
     <use xlink:href="#DejaVuSans-65" transform="translate(328.222656 0)"/>
     <use xlink:href="#DejaVuSans-63" transform="translate(389.746094 0)"/>
     <use xlink:href="#DejaVuSans-74" transform="translate(444.726562 0)"/>
     <use xlink:href="#DejaVuSans-20" transform="translate(483.935547 0)"/>
     <use xlink:href="#DejaVuSans-67" transform="translate(515.722656 0)"/>
     <use xlink:href="#DejaVuSans-61" transform="translate(579.199219 0)"/>
     <use xlink:href="#DejaVuSans-74" transform="translate(640.478516 0)"/>
     <use xlink:href="#DejaVuSans-65" transform="translate(679.6875 0)"/>
     <use xlink:href="#DejaVuSans-73" transform="translate(741.210938 0)"/>
     <use xlink:href="#DejaVuSans-20" transform="translate(793.310547 0)"/>
     <use xlink:href="#DejaVuSans-28" transform="translate(825.097656 0)"/>
     <use xlink:href="#DejaVuSans-62" transform="translate(864.111328 0)"/>
     <use xlink:href="#DejaVuSans-29" transform="translate(927.587891 0)"/>
    </g>
   </g>
  </g>
 </g>
 <defs>
  <clipPath id="p9c9ca76bda">
   <rect x="47.82" y="27.6" width="306.78" height="216.54"/>
  </clipPath>
  <clipPath id="p8b5441bbb8">
   <rect x="402.42" y="27.6" width="306.78" height="216.54"/>
  </clipPath>
 </defs>
</svg>
